<?xml version="1.0" encoding="UTF-8"?>
<!DOCTYPE svg PUBLIC "-//W3C//DTD SVG 1.1//EN" "http://www.w3.org/Graphics/SVG/1.1/DTD/svg11.dtd">
<svg xmlns="http://www.w3.org/2000/svg" version="1.1" width="460px" height="460px" style="shape-rendering:geometricPrecision; text-rendering:geometricPrecision; image-rendering:optimizeQuality; fill-rule:evenodd; clip-rule:evenodd" xmlns:xlink="http://www.w3.org/1999/xlink">
<g><path style="opacity:0.958" fill="#221115" d="M 179.5,89.5 C 193.311,89.0257 205.977,92.5257 217.5,100C 219.618,101.049 221.284,102.549 222.5,104.5C 222.5,104.833 222.5,105.167 222.5,105.5C 220.95,104.559 219.284,103.893 217.5,103.5C 215.66,101.832 213.66,100.332 211.5,99C 191.11,91.6927 170.11,89.5261 148.5,92.5C 151.868,90.941 155.535,90.1077 159.5,90C 166.158,89.5004 172.825,89.3337 179.5,89.5 Z"/></g>
<g><path style="opacity:0.239" fill="#2d404f" d="M 179.5,89.5 C 172.825,89.3337 166.158,89.5004 159.5,90C 155.535,90.1077 151.868,90.941 148.5,92.5C 146.5,92.5 144.5,92.5 142.5,92.5C 147.199,90.577 152.199,89.4103 157.5,89C 165.012,88.1782 172.345,88.3448 179.5,89.5 Z"/></g>
<g><path style="opacity:0.278" fill="#385c5e" d="M 263.5,90.5 C 249.275,93.0293 236.442,98.696 225,107.5C 224.292,106.619 223.458,105.953 222.5,105.5C 222.5,105.167 222.5,104.833 222.5,104.5C 223.496,104.414 224.329,104.748 225,105.5C 235.9,97.7173 247.9,92.3839 261,89.5C 262.07,89.528 262.903,89.8614 263.5,90.5 Z"/></g>
<g><path style="opacity:1" fill="#9f362b" d="M 217.5,103.5 C 218.5,105.167 219.833,106.5 221.5,107.5C 221.771,109.38 221.104,110.713 219.5,111.5C 219.178,107.489 217.178,104.489 213.5,102.5C 212.264,101.754 210.93,101.421 209.5,101.5C 204.929,100.288 200.596,98.4549 196.5,96C 179.569,93.3452 162.569,92.8452 145.5,94.5C 146.5,93.8333 147.5,93.1667 148.5,92.5C 170.11,89.5261 191.11,91.6927 211.5,99C 213.66,100.332 215.66,101.832 217.5,103.5 Z"/></g>
<g><path style="opacity:1" fill="#d73219" d="M 209.5,101.5 C 209.52,103.143 208.853,104.476 207.5,105.5C 205.726,106.187 204.059,107.02 202.5,108C 205.785,108.697 209.118,109.364 212.5,110C 213.38,111.356 213.714,112.856 213.5,114.5C 212.167,114.5 210.833,114.5 209.5,114.5C 209.55,112.41 208.55,111.077 206.5,110.5C 204.775,111.015 203.108,111.682 201.5,112.5C 204.969,115.438 206.136,119.104 205,123.5C 204,124.833 203,124.833 202,123.5C 201.583,119.079 200.75,114.746 199.5,110.5C 198.378,109.37 197.044,108.703 195.5,108.5C 191.168,107.839 188.168,105.505 186.5,101.5C 180.889,102.105 175.222,102.105 169.5,101.5C 169.238,102.978 169.571,104.311 170.5,105.5C 173.783,106.188 176.949,107.188 180,108.5C 180.167,108.833 180.333,109.167 180.5,109.5C 179.5,109.833 178.5,110.167 177.5,110.5C 164.381,106.097 151.048,105.43 137.5,108.5C 137.137,109.183 136.804,109.85 136.5,110.5C 134.473,110.662 132.473,110.495 130.5,110C 131.274,107.595 131.774,105.095 132,102.5C 137.049,100.661 141.549,97.9946 145.5,94.5C 162.569,92.8452 179.569,93.3452 196.5,96C 200.596,98.4549 204.929,100.288 209.5,101.5 Z"/></g>
<g><path style="opacity:0.824" fill="#251e21" d="M 142.5,92.5 C 144.5,92.5 146.5,92.5 148.5,92.5C 147.5,93.1667 146.5,93.8333 145.5,94.5C 144.127,94.3433 142.793,94.51 141.5,95C 137.419,97.7072 133.086,99.8739 128.5,101.5C 126.022,102.883 123.355,103.883 120.5,104.5C 126.618,98.4377 133.952,94.4377 142.5,92.5 Z"/></g>
<g><path style="opacity:1" fill="#eadb34" d="M 252.5,95.5 C 254.179,95.2852 255.179,95.9519 255.5,97.5C 252.366,98.9009 249.366,100.568 246.5,102.5C 245.167,103.5 245.167,104.5 246.5,105.5C 248.075,104.544 249.742,103.877 251.5,103.5C 253.048,103.821 253.715,104.821 253.5,106.5C 251.142,108.678 248.475,110.345 245.5,111.5C 244.833,111.5 244.167,111.5 243.5,111.5C 243.721,110.265 244.388,109.265 245.5,108.5C 244.066,107.77 242.9,106.77 242,105.5C 240.796,106.471 240.296,107.471 240.5,108.5C 238.129,106.227 235.462,105.894 232.5,107.5C 227.985,109.337 224.319,112.337 221.5,116.5C 224.902,116.436 228.235,116.769 231.5,117.5C 229.265,117.205 227.265,117.539 225.5,118.5C 222.805,120.251 222.139,122.584 223.5,125.5C 224.5,126.833 225.5,126.833 226.5,125.5C 224.776,121.388 226.11,119.888 230.5,121C 231.252,121.671 231.586,122.504 231.5,123.5C 231.375,127.423 229.542,130.09 226,131.5C 223.367,130.344 220.7,129.344 218,128.5C 217.503,125.854 217.336,123.187 217.5,120.5C 219.029,116.632 221.363,113.299 224.5,110.5C 232.949,103.941 242.282,98.9409 252.5,95.5 Z"/></g>
<g><path style="opacity:1" fill="#1f1914" d="M 263.5,90.5 C 264.586,90.62 265.253,91.2867 265.5,92.5C 262.964,99.5553 260.464,106.555 258,113.5C 253.5,117.333 249,121.167 244.5,125C 246.415,127.4 248.081,129.9 249.5,132.5C 246.769,128.766 243.436,125.766 239.5,123.5C 246.18,120.325 251.846,115.825 256.5,110C 255.5,109.333 254.5,109.333 253.5,110C 250.14,112.546 246.474,114.379 242.5,115.5C 242.771,113.57 243.771,112.236 245.5,111.5C 248.475,110.345 251.142,108.678 253.5,106.5C 255.812,104.854 257.812,102.854 259.5,100.5C 259.167,100.167 258.833,99.8333 258.5,99.5C 256.107,100.929 253.774,102.263 251.5,103.5C 249.742,103.877 248.075,104.544 246.5,105.5C 245.167,104.5 245.167,103.5 246.5,102.5C 249.366,100.568 252.366,98.9009 255.5,97.5C 257.612,96.5604 259.612,95.3937 261.5,94C 258.183,93.2191 255.183,93.7191 252.5,95.5C 242.282,98.9409 232.949,103.941 224.5,110.5C 223.1,109.9 222.1,108.9 221.5,107.5C 219.833,106.5 218.5,105.167 217.5,103.5C 219.284,103.893 220.95,104.559 222.5,105.5C 223.458,105.953 224.292,106.619 225,107.5C 236.442,98.696 249.275,93.0293 263.5,90.5 Z"/></g>
<g><path style="opacity:1" fill="#c29d64" d="M 253.5,106.5 C 253.715,104.821 253.048,103.821 251.5,103.5C 253.774,102.263 256.107,100.929 258.5,99.5C 258.833,99.8333 259.167,100.167 259.5,100.5C 257.812,102.854 255.812,104.854 253.5,106.5 Z"/></g>
<g><path style="opacity:1" fill="#c9ba85" d="M 255.5,97.5 C 255.179,95.9519 254.179,95.2852 252.5,95.5C 255.183,93.7191 258.183,93.2191 261.5,94C 259.612,95.3937 257.612,96.5604 255.5,97.5 Z"/></g>
<g><path style="opacity:1" fill="#440606" d="M 171.5,111.5 C 159.836,110.197 148.169,110.197 136.5,111.5C 136.5,111.167 136.5,110.833 136.5,110.5C 147.471,108.21 158.471,108.043 169.5,110C 170.416,110.278 171.082,110.778 171.5,111.5 Z"/></g>
<g><path style="opacity:1" fill="#a73d35" d="M 145.5,94.5 C 141.549,97.9946 137.049,100.661 132,102.5C 131.774,105.095 131.274,107.595 130.5,110C 132.473,110.495 134.473,110.662 136.5,110.5C 136.5,110.833 136.5,111.167 136.5,111.5C 124.09,113.452 115.257,120.119 110,131.5C 109.816,137.36 109.649,143.026 109.5,148.5C 107.51,145.492 106.51,142.159 106.5,138.5C 106.757,133.134 108.09,128.134 110.5,123.5C 114.304,120.528 117.637,117.028 120.5,113C 123.418,111.291 126.252,109.458 129,107.5C 129.432,106.4 128.932,105.733 127.5,105.5C 125.225,106.598 123.058,107.932 121,109.5C 120.833,109.167 120.667,108.833 120.5,108.5C 123.198,106.159 125.865,103.826 128.5,101.5C 133.086,99.8739 137.419,97.7072 141.5,95C 142.793,94.51 144.127,94.3433 145.5,94.5 Z"/></g>
<g><path style="opacity:1" fill="#b93a2d" d="M 195.5,108.5 C 198.412,110.958 199.078,113.958 197.5,117.5C 195.885,116.846 194.218,116.346 192.5,116C 190.323,111.959 186.99,110.626 182.5,112C 186.768,116.11 191.434,119.61 196.5,122.5C 197.955,125.755 199.622,128.755 201.5,131.5C 201.5,132.833 201.5,134.167 201.5,135.5C 198.715,130.142 195.048,125.309 190.5,121C 186.553,118.72 182.887,116.053 179.5,113C 176.937,111.921 174.271,111.421 171.5,111.5C 171.082,110.778 170.416,110.278 169.5,110C 158.471,108.043 147.471,108.21 136.5,110.5C 136.804,109.85 137.137,109.183 137.5,108.5C 151.048,105.43 164.381,106.097 177.5,110.5C 178.5,110.167 179.5,109.833 180.5,109.5C 180.333,109.167 180.167,108.833 180,108.5C 176.949,107.188 173.783,106.188 170.5,105.5C 169.571,104.311 169.238,102.978 169.5,101.5C 175.222,102.105 180.889,102.105 186.5,101.5C 188.168,105.505 191.168,107.839 195.5,108.5 Z"/></g>
<g><path style="opacity:1" fill="#4a0304" d="M 173.5,104.5 C 175.288,103.378 177.288,103.211 179.5,104C 185.458,106.095 191.124,108.761 196.5,112C 197.337,113.011 197.67,114.178 197.5,115.5C 189.949,111.083 181.949,107.417 173.5,104.5 Z"/></g>
<g><path style="opacity:1" fill="#f9e210" d="M 243.5,111.5 C 239.745,113.904 235.745,115.904 231.5,117.5C 228.235,116.769 224.902,116.436 221.5,116.5C 224.319,112.337 227.985,109.337 232.5,107.5C 235.462,105.894 238.129,106.227 240.5,108.5C 240.296,107.471 240.796,106.471 242,105.5C 242.9,106.77 244.066,107.77 245.5,108.5C 244.388,109.265 243.721,110.265 243.5,111.5 Z"/></g>
<g><path style="opacity:1" fill="#3b0b0a" d="M 128.5,101.5 C 125.865,103.826 123.198,106.159 120.5,108.5C 120.667,108.833 120.833,109.167 121,109.5C 123.058,107.932 125.225,106.598 127.5,105.5C 128.932,105.733 129.432,106.4 129,107.5C 126.252,109.458 123.418,111.291 120.5,113C 117.637,117.028 114.304,120.528 110.5,123.5C 110.767,119.406 112.767,116.572 116.5,115C 116.043,114.586 115.709,114.086 115.5,113.5C 117.954,110.924 119.621,107.924 120.5,104.5C 123.355,103.883 126.022,102.883 128.5,101.5 Z"/></g>
<g><path style="opacity:1" fill="#e6a81c" d="M 243.5,111.5 C 244.167,111.5 244.833,111.5 245.5,111.5C 243.771,112.236 242.771,113.57 242.5,115.5C 242.539,116.583 242.873,117.583 243.5,118.5C 241.851,119.148 240.518,120.148 239.5,121.5C 237.833,122.666 236.166,122.666 234.5,121.5C 232.112,118.924 229.112,117.924 225.5,118.5C 227.265,117.539 229.265,117.205 231.5,117.5C 235.745,115.904 239.745,113.904 243.5,111.5 Z"/></g>
<g><path style="opacity:1" fill="#d59f44" d="M 239.5,123.5 C 238.193,124.153 236.86,124.82 235.5,125.5C 234.571,124.311 234.238,122.978 234.5,121.5C 236.166,122.666 237.833,122.666 239.5,121.5C 240.518,120.148 241.851,119.148 243.5,118.5C 242.873,117.583 242.539,116.583 242.5,115.5C 246.474,114.379 250.14,112.546 253.5,110C 254.5,109.333 255.5,109.333 256.5,110C 251.846,115.825 246.18,120.325 239.5,123.5 Z"/></g>
<g><path style="opacity:1" fill="#d7321d" d="M 209.5,101.5 C 210.93,101.421 212.264,101.754 213.5,102.5C 217.178,104.489 219.178,107.489 219.5,111.5C 217.381,112.791 215.715,114.625 214.5,117C 213.207,117.49 211.873,117.657 210.5,117.5C 210.97,122.537 211.637,127.537 212.5,132.5C 210.229,133.363 207.895,133.363 205.5,132.5C 205.5,130.833 205.5,129.167 205.5,127.5C 204.5,127.5 203.5,127.5 202.5,127.5C 202.567,128.959 202.234,130.292 201.5,131.5C 199.622,128.755 197.955,125.755 196.5,122.5C 191.434,119.61 186.768,116.11 182.5,112C 186.99,110.626 190.323,111.959 192.5,116C 194.218,116.346 195.885,116.846 197.5,117.5C 199.078,113.958 198.412,110.958 195.5,108.5C 197.044,108.703 198.378,109.37 199.5,110.5C 200.75,114.746 201.583,119.079 202,123.5C 203,124.833 204,124.833 205,123.5C 206.136,119.104 204.969,115.438 201.5,112.5C 203.108,111.682 204.775,111.015 206.5,110.5C 208.55,111.077 209.55,112.41 209.5,114.5C 210.833,114.5 212.167,114.5 213.5,114.5C 213.714,112.856 213.38,111.356 212.5,110C 209.118,109.364 205.785,108.697 202.5,108C 204.059,107.02 205.726,106.187 207.5,105.5C 208.853,104.476 209.52,103.143 209.5,101.5 Z"/></g>
<g><path style="opacity:1" fill="#411004" d="M 221.5,107.5 C 222.1,108.9 223.1,109.9 224.5,110.5C 221.363,113.299 219.029,116.632 217.5,120.5C 215.021,124.407 215.187,128.407 218,132.5C 222.052,134.942 226.219,135.109 230.5,133C 232.113,130.772 232.78,128.272 232.5,125.5C 233.272,126.694 234.272,127.694 235.5,128.5C 231.634,138.062 225.301,140.062 216.5,134.5C 213.674,130.608 212.841,126.275 214,121.5C 216.062,118.277 217.896,114.943 219.5,111.5C 221.104,110.713 221.771,109.38 221.5,107.5 Z"/></g>
<g><path style="opacity:1" fill="#dfa833" d="M 217.5,120.5 C 217.336,123.187 217.503,125.854 218,128.5C 220.7,129.344 223.367,130.344 226,131.5C 229.542,130.09 231.375,127.423 231.5,123.5C 232.338,123.842 232.672,124.508 232.5,125.5C 232.78,128.272 232.113,130.772 230.5,133C 226.219,135.109 222.052,134.942 218,132.5C 215.187,128.407 215.021,124.407 217.5,120.5 Z"/></g>
<g><path style="opacity:1" fill="#514736" d="M 137.5,141.5 C 135.535,143.488 133.202,144.988 130.5,146C 125.525,146.576 120.859,148.076 116.5,150.5C 114.679,151.728 113.679,153.394 113.5,155.5C 112.662,155.158 112.328,154.492 112.5,153.5C 112.688,149.936 113.688,146.603 115.5,143.5C 114.675,142.614 113.675,142.281 112.5,142.5C 112.094,139.281 112.094,136.281 112.5,133.5C 112.435,133.938 112.601,134.272 113,134.5C 120.547,127.571 128.547,126.904 137,132.5C 137.5,134 138,135.5 138.5,137C 137.852,138.44 137.519,139.94 137.5,141.5 Z"/></g>
<g><path style="opacity:1" fill="#5d523e" d="M 188.5,123.5 C 197.066,130.307 201.566,139.307 202,150.5C 202.498,153.482 202.665,156.482 202.5,159.5C 201.577,158.697 200.577,158.53 199.5,159C 200.451,159.718 200.617,160.551 200,161.5C 198.519,160.529 197.685,159.196 197.5,157.5C 198.738,157.19 198.738,156.69 197.5,156C 191.565,151.632 184.898,149.132 177.5,148.5C 177.5,147.833 177.167,147.5 176.5,147.5C 176.233,144.688 175.233,142.355 173.5,140.5C 175.219,139.978 176.552,138.978 177.5,137.5C 178.171,136.153 178.171,134.986 177.5,134C 180.167,133.333 180.167,132.667 177.5,132C 179.403,131.226 181.07,131.56 182.5,133C 181.833,133.333 181.167,133.667 180.5,134C 181.766,134.309 182.933,134.809 184,135.5C 184.741,134.359 185.575,134.359 186.5,135.5C 187.522,135.145 188.189,134.478 188.5,133.5C 189.794,134.29 190.961,135.29 192,136.5C 193.188,135.437 193.688,134.103 193.5,132.5C 192.127,132.657 190.793,132.49 189.5,132C 189.833,131.667 190.167,131.333 190.5,131C 189.167,130 187.833,129 186.5,128C 187.582,126.67 188.249,125.17 188.5,123.5 Z"/></g>
<g><path style="opacity:1" fill="#ca3727" d="M 219.5,111.5 C 217.896,114.943 216.062,118.277 214,121.5C 212.841,126.275 213.674,130.608 216.5,134.5C 225.301,140.062 231.634,138.062 235.5,128.5C 236.915,127.711 238.415,127.044 240,126.5C 242.894,128.647 245.06,131.313 246.5,134.5C 243.978,133.163 241.645,131.496 239.5,129.5C 236.683,132.818 233.683,135.985 230.5,139C 231.623,140.044 232.956,140.71 234.5,141C 231.518,141.498 228.518,141.665 225.5,141.5C 225.531,145.276 224.864,145.443 223.5,142C 226.181,139.443 225.515,138.276 221.5,138.5C 221.784,140.415 221.451,142.081 220.5,143.5C 219.325,143.719 218.325,143.386 217.5,142.5C 218.309,140.929 218.643,139.262 218.5,137.5C 216.856,137.286 215.356,137.62 214,138.5C 214.751,152.822 214.418,167.156 213,181.5C 210.33,182.224 208.83,183.891 208.5,186.5C 212.649,185.92 216.316,186.586 219.5,188.5C 215.25,187.728 210.917,187.228 206.5,187C 207.252,186.329 207.586,185.496 207.5,184.5C 209.888,179.83 211.388,174.83 212,169.5C 212.804,160.422 212.637,151.422 211.5,142.5C 210.791,141.596 209.791,141.263 208.5,141.5C 208.666,146.179 208.499,150.845 208,155.5C 207.292,154.619 206.458,153.953 205.5,153.5C 205.451,149.922 204.785,146.589 203.5,143.5C 202.629,140.888 201.963,138.221 201.5,135.5C 201.5,134.167 201.5,132.833 201.5,131.5C 202.234,130.292 202.567,128.959 202.5,127.5C 203.5,127.5 204.5,127.5 205.5,127.5C 205.5,129.167 205.5,130.833 205.5,132.5C 207.895,133.363 210.229,133.363 212.5,132.5C 211.637,127.537 210.97,122.537 210.5,117.5C 211.873,117.657 213.207,117.49 214.5,117C 215.715,114.625 217.381,112.791 219.5,111.5 Z"/></g>
<g><path style="opacity:1" fill="#d9301b" d="M 246.5,134.5 C 248.032,137.766 249.366,141.099 250.5,144.5C 251.822,144.33 252.989,144.663 254,145.5C 254.883,148.102 256.383,150.269 258.5,152C 257.748,152.671 257.414,153.504 257.5,154.5C 256.732,153.737 256.232,152.737 256,151.5C 254.693,152.772 253.193,153.772 251.5,154.5C 252.689,155.429 254.022,155.762 255.5,155.5C 255.5,156.833 255.5,158.167 255.5,159.5C 244.817,158.851 239.151,163.851 238.5,174.5C 236.253,175.374 233.92,175.708 231.5,175.5C 231.218,180.927 231.551,186.26 232.5,191.5C 230.856,191.714 229.356,191.38 228,190.5C 227.501,185.511 227.334,180.511 227.5,175.5C 226.5,175.5 225.5,175.5 224.5,175.5C 224.662,173.473 224.495,171.473 224,169.5C 219.674,161.294 218.507,152.627 220.5,143.5C 221.451,142.081 221.784,140.415 221.5,138.5C 225.515,138.276 226.181,139.443 223.5,142C 224.864,145.443 225.531,145.276 225.5,141.5C 228.518,141.665 231.518,141.498 234.5,141C 232.956,140.71 231.623,140.044 230.5,139C 233.683,135.985 236.683,132.818 239.5,129.5C 241.645,131.496 243.978,133.163 246.5,134.5 Z"/></g>
<g><path style="opacity:1" fill="#e4ddcf" d="M 155.5,138.5 C 156.508,141.028 158.174,143.195 160.5,145C 165.656,146.962 170.989,147.795 176.5,147.5C 177.167,147.5 177.5,147.833 177.5,148.5C 176.833,148.5 176.5,148.833 176.5,149.5C 175.735,149.077 174.902,148.743 174,148.5C 158,152.965 141.833,153.631 125.5,150.5C 122.927,150.453 120.927,151.453 119.5,153.5C 120,153.833 120.5,154.167 121,154.5C 125.9,153.453 130.733,153.786 135.5,155.5C 132.725,158.034 129.725,158.034 126.5,155.5C 125.571,156.689 125.238,158.022 125.5,159.5C 127.429,159.231 129.095,159.731 130.5,161C 129.584,161.278 128.918,161.778 128.5,162.5C 125.546,161.572 122.546,160.739 119.5,160C 116.894,159.208 114.894,157.708 113.5,155.5C 113.679,153.394 114.679,151.728 116.5,150.5C 120.859,148.076 125.525,146.576 130.5,146C 133.202,144.988 135.535,143.488 137.5,141.5C 139.042,140.699 140.708,140.366 142.5,140.5C 138.778,141.391 137.278,143.724 138,147.5C 139.938,148.86 141.604,148.527 143,146.5C 145.667,151.833 148.333,151.833 151,146.5C 155.333,148.5 157,147.167 156,142.5C 154.955,141.627 154.122,140.627 153.5,139.5C 154.167,139.167 154.833,138.833 155.5,138.5 Z"/></g>
<g><path style="opacity:0.765" fill="#2c1616" d="M 225.5,118.5 C 229.112,117.924 232.112,118.924 234.5,121.5C 234.238,122.978 234.571,124.311 235.5,125.5C 236.86,124.82 238.193,124.153 239.5,123.5C 243.436,125.766 246.769,128.766 249.5,132.5C 262.948,148.379 273.614,166.046 281.5,185.5C 282.399,189.624 284.066,193.291 286.5,196.5C 287.167,196.5 287.5,196.833 287.5,197.5C 286.861,198.097 286.528,198.93 286.5,200C 287.942,204.022 288.775,208.189 289,212.5C 291.209,215.789 292.042,219.456 291.5,223.5C 290.47,220.05 289.137,216.717 287.5,213.5C 287.5,213.167 287.5,212.833 287.5,212.5C 287.116,208.414 286.283,204.414 285,200.5C 282.741,194.986 280.241,189.653 277.5,184.5C 273.457,173.487 267.79,163.487 260.5,154.5C 257.413,146.743 252.746,140.077 246.5,134.5C 245.06,131.313 242.894,128.647 240,126.5C 238.415,127.044 236.915,127.711 235.5,128.5C 234.272,127.694 233.272,126.694 232.5,125.5C 232.672,124.508 232.338,123.842 231.5,123.5C 231.586,122.504 231.252,121.671 230.5,121C 226.11,119.888 224.776,121.388 226.5,125.5C 225.5,126.833 224.5,126.833 223.5,125.5C 222.139,122.584 222.805,120.251 225.5,118.5 Z"/></g>
<g><path style="opacity:1" fill="#17130e" d="M 176.5,149.5 C 177.376,149.369 178.043,149.702 178.5,150.5C 164.542,155.053 150.208,156.719 135.5,155.5C 130.733,153.786 125.9,153.453 121,154.5C 120.5,154.167 120,153.833 119.5,153.5C 120.927,151.453 122.927,150.453 125.5,150.5C 141.833,153.631 158,152.965 174,148.5C 174.902,148.743 175.735,149.077 176.5,149.5 Z"/></g>
<g><path style="opacity:1" fill="#db301a" d="M 257.5,154.5 C 258.919,157.1 260.585,159.6 262.5,162C 262,162.5 261.5,163 261,163.5C 260.092,161.561 258.592,160.561 256.5,160.5C 257.552,164.115 258.219,167.615 258.5,171C 256.833,171.333 255.167,171.667 253.5,172C 253.957,172.414 254.291,172.914 254.5,173.5C 251.893,174.318 249.226,174.818 246.5,175C 246.491,176.73 246.158,178.563 245.5,180.5C 244.278,178.022 242.278,177.022 239.5,177.5C 239.238,178.978 239.571,180.311 240.5,181.5C 242.303,182.137 243.636,183.303 244.5,185C 248.071,185.448 251.404,184.948 254.5,183.5C 255.167,182.833 255.833,182.167 256.5,181.5C 257.158,182.793 257.492,184.293 257.5,186C 258.126,191.098 256.793,192.098 253.5,189C 250.144,188.785 246.811,188.785 243.5,189C 242.382,187.926 241.382,186.76 240.5,185.5C 239.858,188.957 240.524,192.29 242.5,195.5C 243.799,194.91 244.632,193.91 245,192.5C 246.382,198.094 245.382,203.094 242,207.5C 241.667,209.5 241.333,211.5 241,213.5C 240,211.5 239,209.5 238,207.5C 237.501,211.486 237.334,215.486 237.5,219.5C 236.5,220.833 235.5,220.833 234.5,219.5C 234.672,218.508 234.338,217.842 233.5,217.5C 233.253,213.589 231.753,210.256 229,207.5C 227.301,206.594 225.467,206.261 223.5,206.5C 223.923,204.219 223.256,202.552 221.5,201.5C 221.36,198.267 222.527,195.601 225,193.5C 226.789,195.229 228.956,195.896 231.5,195.5C 231.433,194.041 231.766,192.708 232.5,191.5C 231.551,186.26 231.218,180.927 231.5,175.5C 233.92,175.708 236.253,175.374 238.5,174.5C 239.151,163.851 244.817,158.851 255.5,159.5C 255.5,158.167 255.5,156.833 255.5,155.5C 254.022,155.762 252.689,155.429 251.5,154.5C 253.193,153.772 254.693,152.772 256,151.5C 256.232,152.737 256.732,153.737 257.5,154.5 Z"/></g>
<g><path style="opacity:0.694" fill="#201e24" d="M 120.5,104.5 C 119.621,107.924 117.954,110.924 115.5,113.5C 115.709,114.086 116.043,114.586 116.5,115C 112.767,116.572 110.767,119.406 110.5,123.5C 108.09,128.134 106.757,133.134 106.5,138.5C 106.51,142.159 107.51,145.492 109.5,148.5C 110.692,150.113 111.692,151.78 112.5,153.5C 112.328,154.492 112.662,155.158 113.5,155.5C 114.894,157.708 116.894,159.208 119.5,160C 122.546,160.739 125.546,161.572 128.5,162.5C 134.02,164.296 139.687,165.296 145.5,165.5C 145.389,166.117 145.056,166.617 144.5,167C 146.058,167.21 147.391,167.71 148.5,168.5C 138.66,167.632 128.994,165.799 119.5,163C 112.618,160.416 108.118,155.583 106,148.5C 103.286,142.274 102.952,135.941 105,129.5C 107.002,121.831 110.335,114.831 115,108.5C 116.451,106.536 118.284,105.203 120.5,104.5 Z"/></g>
<g><path style="opacity:1" fill="#d2341e" d="M 246.5,134.5 C 252.746,140.077 257.413,146.743 260.5,154.5C 265.038,164.381 270.038,174.048 275.5,183.5C 275.957,184.298 276.624,184.631 277.5,184.5C 279.897,192.287 282.564,199.954 285.5,207.5C 284.778,207.082 284.278,206.416 284,205.5C 282.175,207.48 281.341,209.813 281.5,212.5C 279.104,208.29 277.937,203.623 278,198.5C 276.252,195.709 274.419,193.042 272.5,190.5C 271.227,188.287 270.227,185.954 269.5,183.5C 268.271,178.896 265.271,176.063 260.5,175C 258.613,174.22 256.946,174.387 255.5,175.5C 255.167,175.5 254.833,175.5 254.5,175.5C 249.138,175.546 247.138,178.213 248.5,183.5C 250.5,183.5 252.5,183.5 254.5,183.5C 251.404,184.948 248.071,185.448 244.5,185C 243.636,183.303 242.303,182.137 240.5,181.5C 239.571,180.311 239.238,178.978 239.5,177.5C 242.278,177.022 244.278,178.022 245.5,180.5C 246.158,178.563 246.491,176.73 246.5,175C 249.226,174.818 251.893,174.318 254.5,173.5C 254.291,172.914 253.957,172.414 253.5,172C 255.167,171.667 256.833,171.333 258.5,171C 258.219,167.615 257.552,164.115 256.5,160.5C 258.592,160.561 260.092,161.561 261,163.5C 261.5,163 262,162.5 262.5,162C 260.585,159.6 258.919,157.1 257.5,154.5C 257.414,153.504 257.748,152.671 258.5,152C 256.383,150.269 254.883,148.102 254,145.5C 252.989,144.663 251.822,144.33 250.5,144.5C 249.366,141.099 248.032,137.766 246.5,134.5 Z"/></g>
<g><path style="opacity:1" fill="#e8e0cc" d="M 176.5,149.5 C 176.5,148.833 176.833,148.5 177.5,148.5C 184.898,149.132 191.565,151.632 197.5,156C 198.738,156.69 198.738,157.19 197.5,157.5C 194.282,157.651 193.949,158.484 196.5,160C 195.377,161.044 194.044,161.71 192.5,162C 191.748,162.671 191.414,163.504 191.5,164.5C 188.698,164.018 185.865,163.684 183,163.5C 170.553,165.123 158.053,165.789 145.5,165.5C 139.687,165.296 134.02,164.296 128.5,162.5C 128.918,161.778 129.584,161.278 130.5,161C 129.095,159.731 127.429,159.231 125.5,159.5C 125.238,158.022 125.571,156.689 126.5,155.5C 129.725,158.034 132.725,158.034 135.5,155.5C 150.208,156.719 164.542,155.053 178.5,150.5C 178.043,149.702 177.376,149.369 176.5,149.5 Z"/></g>
<g><path style="opacity:1" fill="#7b6f5d" d="M 197.5,157.5 C 197.685,159.196 198.519,160.529 200,161.5C 200.617,160.551 200.451,159.718 199.5,159C 200.577,158.53 201.577,158.697 202.5,159.5C 203.1,165.501 202.6,171.501 201,177.5C 198.208,182.251 194.041,184.085 188.5,183C 186.667,180.002 184.334,177.502 181.5,175.5C 178.634,172.479 175.3,169.979 171.5,168C 177.097,166.544 182.763,166.211 188.5,167C 191.027,167.513 193.193,168.68 195,170.5C 196.257,170.15 196.591,169.483 196,168.5C 194.603,166.93 193.103,165.596 191.5,164.5C 191.414,163.504 191.748,162.671 192.5,162C 194.044,161.71 195.377,161.044 196.5,160C 193.949,158.484 194.282,157.651 197.5,157.5 Z"/></g>
<g><path style="opacity:1" fill="#ac3f32" d="M 211.5,142.5 C 210.039,154.553 208.539,166.886 207,179.5C 205.37,182.568 202.87,184.568 199.5,185.5C 198.833,185.5 198.167,185.5 197.5,185.5C 200.804,182.908 203.137,179.575 204.5,175.5C 205.492,168.352 205.825,161.019 205.5,153.5C 206.458,153.953 207.292,154.619 208,155.5C 208.499,150.845 208.666,146.179 208.5,141.5C 209.791,141.263 210.791,141.596 211.5,142.5 Z"/></g>
<g><path style="opacity:1" fill="#3f0604" d="M 203.5,143.5 C 204.785,146.589 205.451,149.922 205.5,153.5C 205.825,161.019 205.492,168.352 204.5,175.5C 204.433,164.823 204.099,154.156 203.5,143.5 Z"/></g>
<g><path style="opacity:1" fill="#d7321c" d="M 220.5,143.5 C 218.507,152.627 219.674,161.294 224,169.5C 224.495,171.473 224.662,173.473 224.5,175.5C 225.5,175.5 226.5,175.5 227.5,175.5C 227.334,180.511 227.501,185.511 228,190.5C 229.356,191.38 230.856,191.714 232.5,191.5C 231.766,192.708 231.433,194.041 231.5,195.5C 228.956,195.896 226.789,195.229 225,193.5C 222.527,195.601 221.36,198.267 221.5,201.5C 219.901,201.232 218.568,201.566 217.5,202.5C 212.389,204.095 207.389,206.095 202.5,208.5C 201.842,209.398 201.176,210.398 200.5,211.5C 199.511,207.893 199.177,204.226 199.5,200.5C 201.483,200.843 202.817,200.176 203.5,198.5C 204.434,197.432 204.768,196.099 204.5,194.5C 210.489,193.774 216.489,193.107 222.5,192.5C 222.532,190.381 221.532,189.048 219.5,188.5C 216.316,186.586 212.649,185.92 208.5,186.5C 208.83,183.891 210.33,182.224 213,181.5C 214.418,167.156 214.751,152.822 214,138.5C 215.356,137.62 216.856,137.286 218.5,137.5C 218.643,139.262 218.309,140.929 217.5,142.5C 218.325,143.386 219.325,143.719 220.5,143.5 Z"/></g>
<g><path style="opacity:1" fill="#ab3a2d" d="M 260.5,154.5 C 267.79,163.487 273.457,173.487 277.5,184.5C 276.624,184.631 275.957,184.298 275.5,183.5C 270.038,174.048 265.038,164.381 260.5,154.5 Z"/></g>
<g><path style="opacity:1" fill="#140e10" d="M 191.5,164.5 C 193.103,165.596 194.603,166.93 196,168.5C 196.591,169.483 196.257,170.15 195,170.5C 193.193,168.68 191.027,167.513 188.5,167C 182.763,166.211 177.097,166.544 171.5,168C 175.3,169.979 178.634,172.479 181.5,175.5C 179.941,178.488 180.941,180.321 184.5,181C 179.845,181.499 175.179,181.666 170.5,181.5C 168.86,180.68 167.193,179.847 165.5,179C 162.321,174.488 158.488,170.654 154,167.5C 152.743,167.85 152.409,168.517 153,169.5C 159.855,176.418 167.022,182.918 174.5,189C 175.793,189.49 177.127,189.657 178.5,189.5C 180.751,190.695 183.085,191.695 185.5,192.5C 185.5,193.833 185.5,195.167 185.5,196.5C 185.5,196.833 185.5,197.167 185.5,197.5C 184.838,199.304 184.505,201.304 184.5,203.5C 185.501,212.841 186.501,222.174 187.5,231.5C 186.004,224.864 184.671,218.197 183.5,211.5C 182.833,205.986 182.167,200.319 181.5,194.5C 175.585,191.873 169.918,188.707 164.5,185C 159.257,179.287 153.924,173.787 148.5,168.5C 147.391,167.71 146.058,167.21 144.5,167C 145.056,166.617 145.389,166.117 145.5,165.5C 158.053,165.789 170.553,165.123 183,163.5C 185.865,163.684 188.698,164.018 191.5,164.5 Z"/></g>
<g><path style="opacity:1" fill="#220b06" d="M 171.5,111.5 C 174.271,111.421 176.937,111.921 179.5,113C 182.887,116.053 186.553,118.72 190.5,121C 195.048,125.309 198.715,130.142 201.5,135.5C 201.963,138.221 202.629,140.888 203.5,143.5C 204.099,154.156 204.433,164.823 204.5,175.5C 203.137,179.575 200.804,182.908 197.5,185.5C 196.167,185.5 194.833,185.5 193.5,185.5C 187.833,185.5 182.167,185.5 176.5,185.5C 174.364,184.347 172.364,183.014 170.5,181.5C 175.179,181.666 179.845,181.499 184.5,181C 180.941,180.321 179.941,178.488 181.5,175.5C 184.334,177.502 186.667,180.002 188.5,183C 194.041,184.085 198.208,182.251 201,177.5C 202.6,171.501 203.1,165.501 202.5,159.5C 202.665,156.482 202.498,153.482 202,150.5C 201.566,139.307 197.066,130.307 188.5,123.5C 187.5,123.5 186.5,123.5 185.5,123.5C 186.684,122.312 186.684,121.145 185.5,120C 173.342,112.349 160.009,109.682 145.5,112C 138.195,112.991 131.195,114.991 124.5,118C 119.873,120.788 116.539,124.622 114.5,129.5C 112.896,130.287 112.229,131.62 112.5,133.5C 112.094,136.281 112.094,139.281 112.5,142.5C 113.675,142.281 114.675,142.614 115.5,143.5C 113.688,146.603 112.688,149.936 112.5,153.5C 111.692,151.78 110.692,150.113 109.5,148.5C 109.649,143.026 109.816,137.36 110,131.5C 115.257,120.119 124.09,113.452 136.5,111.5C 148.169,110.197 159.836,110.197 171.5,111.5 Z"/></g>
<g><path style="opacity:1" fill="#171411" d="M 153.5,139.5 C 154.122,140.627 154.955,141.627 156,142.5C 157,147.167 155.333,148.5 151,146.5C 148.333,151.833 145.667,151.833 143,146.5C 141.604,148.527 139.938,148.86 138,147.5C 137.278,143.724 138.778,141.391 142.5,140.5C 146.119,139.756 149.785,139.423 153.5,139.5 Z"/></g>
<g><path style="opacity:1" fill="#160d04" d="M 177.5,137.5 C 176.552,138.978 175.219,139.978 173.5,140.5C 170.949,141.949 168.615,141.615 166.5,139.5C 169.94,137.777 173.606,137.11 177.5,137.5 Z"/></g>
<g><path style="opacity:1" fill="#554b37" d="M 188.5,133.5 C 188.189,134.478 187.522,135.145 186.5,135.5C 185.575,134.359 184.741,134.359 184,135.5C 182.933,134.809 181.766,134.309 180.5,134C 181.167,133.667 181.833,133.333 182.5,133C 181.07,131.56 179.403,131.226 177.5,132C 180.167,132.667 180.167,133.333 177.5,134C 178.171,134.986 178.171,136.153 177.5,137.5C 173.606,137.11 169.94,137.777 166.5,139.5C 168.615,141.615 170.949,141.949 173.5,140.5C 175.233,142.355 176.233,144.688 176.5,147.5C 170.989,147.795 165.656,146.962 160.5,145C 158.174,143.195 156.508,141.028 155.5,138.5C 155.416,129.592 159.916,124.925 169,124.5C 176.247,125.922 182.747,128.922 188.5,133.5 Z"/></g>
<g><path style="opacity:1" fill="#ebe0ca" d="M 185.5,123.5 C 186.5,123.5 187.5,123.5 188.5,123.5C 188.249,125.17 187.582,126.67 186.5,128C 187.833,129 189.167,130 190.5,131C 190.167,131.333 189.833,131.667 189.5,132C 190.793,132.49 192.127,132.657 193.5,132.5C 193.688,134.103 193.188,135.437 192,136.5C 190.961,135.29 189.794,134.29 188.5,133.5C 182.747,128.922 176.247,125.922 169,124.5C 159.916,124.925 155.416,129.592 155.5,138.5C 154.833,138.833 154.167,139.167 153.5,139.5C 149.785,139.423 146.119,139.756 142.5,140.5C 140.708,140.366 139.042,140.699 137.5,141.5C 137.519,139.94 137.852,138.44 138.5,137C 138,135.5 137.5,134 137,132.5C 128.547,126.904 120.547,127.571 113,134.5C 112.601,134.272 112.435,133.938 112.5,133.5C 112.229,131.62 112.896,130.287 114.5,129.5C 116.874,126.892 119.707,124.892 123,123.5C 125.099,124.287 127.266,124.62 129.5,124.5C 129.281,123.325 129.614,122.325 130.5,121.5C 133.43,122.547 135.93,124.213 138,126.5C 138.388,125.572 139.055,124.905 140,124.5C 141.658,126.468 143.325,128.468 145,130.5C 145.969,128.266 147.302,126.266 149,124.5C 149.667,125.167 150.333,125.833 151,126.5C 153.557,123.808 156.391,121.475 159.5,119.5C 160.293,119.931 161.127,120.265 162,120.5C 164.135,119.119 166.468,118.119 169,117.5C 170.801,119.564 172.968,119.897 175.5,118.5C 177.777,119.478 180.11,120.145 182.5,120.5C 182.34,122.199 182.506,123.866 183,125.5C 183.995,124.934 184.828,124.267 185.5,123.5 Z"/></g>
<g><path style="opacity:1" fill="#7c715d" d="M 185.5,123.5 C 184.828,124.267 183.995,124.934 183,125.5C 182.506,123.866 182.34,122.199 182.5,120.5C 180.11,120.145 177.777,119.478 175.5,118.5C 172.968,119.897 170.801,119.564 169,117.5C 166.468,118.119 164.135,119.119 162,120.5C 161.127,120.265 160.293,119.931 159.5,119.5C 156.391,121.475 153.557,123.808 151,126.5C 150.333,125.833 149.667,125.167 149,124.5C 147.302,126.266 145.969,128.266 145,130.5C 143.325,128.468 141.658,126.468 140,124.5C 139.055,124.905 138.388,125.572 138,126.5C 135.93,124.213 133.43,122.547 130.5,121.5C 129.614,122.325 129.281,123.325 129.5,124.5C 127.266,124.62 125.099,124.287 123,123.5C 119.707,124.892 116.874,126.892 114.5,129.5C 116.539,124.622 119.873,120.788 124.5,118C 131.195,114.991 138.195,112.991 145.5,112C 160.009,109.682 173.342,112.349 185.5,120C 186.684,121.145 186.684,122.312 185.5,123.5 Z"/></g>
<g><path style="opacity:1" fill="#833935" d="M 170.5,181.5 C 172.364,183.014 174.364,184.347 176.5,185.5C 175.596,186.209 175.263,187.209 175.5,188.5C 176.791,188.263 177.791,188.596 178.5,189.5C 177.127,189.657 175.793,189.49 174.5,189C 167.022,182.918 159.855,176.418 153,169.5C 152.409,168.517 152.743,167.85 154,167.5C 158.488,170.654 162.321,174.488 165.5,179C 167.193,179.847 168.86,180.68 170.5,181.5 Z"/></g>
<g><path style="opacity:1" fill="#4d0303" d="M 211.5,142.5 C 212.637,151.422 212.804,160.422 212,169.5C 211.388,174.83 209.888,179.83 207.5,184.5C 204.982,186.464 202.316,187.13 199.5,186.5C 199.5,186.167 199.5,185.833 199.5,185.5C 202.87,184.568 205.37,182.568 207,179.5C 208.539,166.886 210.039,154.553 211.5,142.5 Z"/></g>
<g><path style="opacity:1" fill="#b13a2f" d="M 207.5,184.5 C 207.586,185.496 207.252,186.329 206.5,187C 210.917,187.228 215.25,187.728 219.5,188.5C 221.532,189.048 222.532,190.381 222.5,192.5C 216.489,193.107 210.489,193.774 204.5,194.5C 204.768,196.099 204.434,197.432 203.5,198.5C 200.299,196.74 196.633,195.906 192.5,196C 200.955,193.22 209.621,191.387 218.5,190.5C 216.39,189.109 214.057,188.442 211.5,188.5C 207.298,188.956 203.298,190.123 199.5,192C 194.845,192.499 190.179,192.666 185.5,192.5C 183.085,191.695 180.751,190.695 178.5,189.5C 177.791,188.596 176.791,188.263 175.5,188.5C 175.263,187.209 175.596,186.209 176.5,185.5C 182.167,185.5 187.833,185.5 193.5,185.5C 190.663,187.402 187.329,188.069 183.5,187.5C 183.5,188.5 183.5,189.5 183.5,190.5C 188.179,190.666 192.845,190.499 197.5,190C 198.973,189.29 199.64,188.124 199.5,186.5C 202.316,187.13 204.982,186.464 207.5,184.5 Z"/></g>
<g><path style="opacity:1" fill="#d63419" d="M 193.5,185.5 C 194.833,185.5 196.167,185.5 197.5,185.5C 198.167,185.5 198.833,185.5 199.5,185.5C 199.5,185.833 199.5,186.167 199.5,186.5C 199.64,188.124 198.973,189.29 197.5,190C 192.845,190.499 188.179,190.666 183.5,190.5C 183.5,189.5 183.5,188.5 183.5,187.5C 187.329,188.069 190.663,187.402 193.5,185.5 Z"/></g>
<g><path style="opacity:0.137" fill="#354655" d="M 281.5,185.5 C 283.934,188.709 285.601,192.376 286.5,196.5C 284.066,193.291 282.399,189.624 281.5,185.5 Z"/></g>
<g><path style="opacity:1" fill="#ab3b30" d="M 277.5,184.5 C 280.241,189.653 282.741,194.986 285,200.5C 286.283,204.414 287.116,208.414 287.5,212.5C 285.787,211.365 285.12,209.698 285.5,207.5C 282.564,199.954 279.897,192.287 277.5,184.5 Z"/></g>
<g><path style="opacity:1" fill="#330705" d="M 203.5,198.5 C 200.383,197.927 198.383,199.094 197.5,202C 198.329,206.126 198.663,210.293 198.5,214.5C 197.834,211.642 197.167,208.642 196.5,205.5C 195.503,212.134 195.17,218.8 195.5,225.5C 195.634,227.292 195.301,228.958 194.5,230.5C 193.883,230.611 193.383,230.944 193,231.5C 192.502,234.482 192.335,237.482 192.5,240.5C 191.5,239.167 190.5,239.167 189.5,240.5C 190.485,237.461 189.818,234.794 187.5,232.5C 187.5,232.167 187.5,231.833 187.5,231.5C 186.501,222.174 185.501,212.841 184.5,203.5C 184.505,201.304 184.838,199.304 185.5,197.5C 186.096,209.938 187.596,222.271 190,234.5C 194.761,225.034 195.594,215.367 192.5,205.5C 192.834,202.509 191.834,200.176 189.5,198.5C 189.163,195.664 187.829,194.998 185.5,196.5C 185.5,195.167 185.5,193.833 185.5,192.5C 190.179,192.666 194.845,192.499 199.5,192C 203.298,190.123 207.298,188.956 211.5,188.5C 214.057,188.442 216.39,189.109 218.5,190.5C 209.621,191.387 200.955,193.22 192.5,196C 196.633,195.906 200.299,196.74 203.5,198.5 Z"/></g>
<g><path style="opacity:1" fill="#be3b2b" d="M 255.5,175.5 C 256.946,174.387 258.613,174.22 260.5,175C 265.271,176.063 268.271,178.896 269.5,183.5C 267.873,181.536 265.873,180.203 263.5,179.5C 267.658,185.895 270.824,192.895 273,200.5C 275.564,210.674 277.064,221.008 277.5,231.5C 277.354,242.187 277.688,252.854 278.5,263.5C 278.28,276.885 278.947,290.219 280.5,303.5C 279.442,301.192 278.276,298.858 277,296.5C 276.812,282.799 276.646,269.132 276.5,255.5C 275.804,244.848 275.47,234.181 275.5,223.5C 272.971,212.067 270.137,200.733 267,189.5C 265.227,186.582 263.727,183.582 262.5,180.5C 260.265,180.205 258.265,180.539 256.5,181.5C 255.833,182.167 255.167,182.833 254.5,183.5C 252.5,183.5 250.5,183.5 248.5,183.5C 247.138,178.213 249.138,175.546 254.5,175.5C 253.492,177.339 251.992,178.672 250,179.5C 249.517,180.448 249.351,181.448 249.5,182.5C 250.873,182.657 252.207,182.49 253.5,182C 255.754,178.415 258.754,177.581 262.5,179.5C 262.5,178.5 262.5,177.5 262.5,176.5C 260.194,176.007 257.861,175.674 255.5,175.5 Z"/></g>
<g><path style="opacity:1" fill="#620f0e" d="M 254.5,175.5 C 254.833,175.5 255.167,175.5 255.5,175.5C 257.861,175.674 260.194,176.007 262.5,176.5C 262.5,177.5 262.5,178.5 262.5,179.5C 258.754,177.581 255.754,178.415 253.5,182C 252.207,182.49 250.873,182.657 249.5,182.5C 249.351,181.448 249.517,180.448 250,179.5C 251.992,178.672 253.492,177.339 254.5,175.5 Z"/></g>
<g><path style="opacity:1" fill="#c23d2d" d="M 272.5,190.5 C 274.419,193.042 276.252,195.709 278,198.5C 277.937,203.623 279.104,208.29 281.5,212.5C 281.87,226.773 282.537,241.106 283.5,255.5C 281.913,245.029 280.746,234.363 280,223.5C 278.352,212.261 275.852,201.261 272.5,190.5 Z"/></g>
<g><path style="opacity:1" fill="#ae3c31" d="M 256.5,199.5 C 256.926,203.427 257.926,207.093 259.5,210.5C 259.83,231.007 259.497,251.34 258.5,271.5C 258.904,250.134 258.404,228.801 257,207.5C 255.226,201.819 252.893,196.486 250,191.5C 249.5,191.833 249,192.167 248.5,192.5C 250.68,195.859 252.013,199.526 252.5,203.5C 250.667,200.141 249.001,196.641 247.5,193C 247.743,189.997 249.41,188.83 252.5,189.5C 252.882,193.332 254.215,196.665 256.5,199.5 Z"/></g>
<g><path style="opacity:1" fill="#3e0904" d="M 217.5,202.5 C 218.833,202.5 220.167,202.5 221.5,202.5C 221.5,204.167 221.5,205.833 221.5,207.5C 220.839,206.282 220.172,204.949 219.5,203.5C 218.478,203.855 217.811,204.522 217.5,205.5C 213.5,206.833 209.5,208.167 205.5,209.5C 204.728,210.694 203.728,211.694 202.5,212.5C 202.5,211.167 202.5,209.833 202.5,208.5C 207.389,206.095 212.389,204.095 217.5,202.5 Z"/></g>
<g><path style="opacity:1" fill="#a84438" d="M 203.5,198.5 C 202.817,200.176 201.483,200.843 199.5,200.5C 199.177,204.226 199.511,207.893 200.5,211.5C 201.176,210.398 201.842,209.398 202.5,208.5C 202.5,209.833 202.5,211.167 202.5,212.5C 201.395,213.6 200.062,214.267 198.5,214.5C 198.663,210.293 198.329,206.126 197.5,202C 198.383,199.094 200.383,197.927 203.5,198.5 Z"/></g>
<g><path style="opacity:1" fill="#420303" d="M 269.5,183.5 C 270.227,185.954 271.227,188.287 272.5,190.5C 275.852,201.261 278.352,212.261 280,223.5C 280.746,234.363 281.913,245.029 283.5,255.5C 283.5,256.833 283.5,258.167 283.5,259.5C 283.5,260.167 283.5,260.833 283.5,261.5C 281.682,259.922 280.682,260.422 280.5,263C 279.39,265.999 279.39,268.832 280.5,271.5C 280.194,274.385 280.527,277.052 281.5,279.5C 280.47,280.552 279.803,281.886 279.5,283.5C 281.269,290.017 281.936,296.684 281.5,303.5C 281.167,303.5 280.833,303.5 280.5,303.5C 278.947,290.219 278.28,276.885 278.5,263.5C 279.164,261.022 279.497,258.355 279.5,255.5C 279.159,247.32 278.492,239.32 277.5,231.5C 277.064,221.008 275.564,210.674 273,200.5C 270.824,192.895 267.658,185.895 263.5,179.5C 265.873,180.203 267.873,181.536 269.5,183.5 Z"/></g>
<g><path style="opacity:1" fill="#cf3320" d="M 189.5,198.5 C 191.834,200.176 192.834,202.509 192.5,205.5C 192.92,212.284 192.42,218.95 191,225.5C 189.932,217.747 188.432,210.08 186.5,202.5C 186.11,200.018 187.11,198.685 189.5,198.5 Z"/></g>
<g><path style="opacity:1" fill="#b33c35" d="M 217.5,202.5 C 218.568,201.566 219.901,201.232 221.5,201.5C 223.256,202.552 223.923,204.219 223.5,206.5C 225.467,206.261 227.301,206.594 229,207.5C 231.753,210.256 233.253,213.589 233.5,217.5C 232.232,214.065 230.232,211.065 227.5,208.5C 225.604,207.534 223.604,207.201 221.5,207.5C 221.5,205.833 221.5,204.167 221.5,202.5C 220.167,202.5 218.833,202.5 217.5,202.5 Z"/></g>
<g><path style="opacity:1" fill="#b93d2e" d="M 189.5,198.5 C 187.11,198.685 186.11,200.018 186.5,202.5C 188.432,210.08 189.932,217.747 191,225.5C 192.42,218.95 192.92,212.284 192.5,205.5C 195.594,215.367 194.761,225.034 190,234.5C 187.596,222.271 186.096,209.938 185.5,197.5C 185.5,197.167 185.5,196.833 185.5,196.5C 187.829,194.998 189.163,195.664 189.5,198.5 Z"/></g>
<g><path style="opacity:1" fill="#d6321c" d="M 256.5,181.5 C 258.265,180.539 260.265,180.205 262.5,180.5C 263.727,183.582 265.227,186.582 267,189.5C 270.137,200.733 272.971,212.067 275.5,223.5C 273.859,225.203 272.859,227.37 272.5,230C 272.167,230.167 271.833,230.333 271.5,230.5C 270.695,227.696 270.028,224.862 269.5,222C 270.945,217.273 271.612,212.44 271.5,207.5C 270.167,207.5 268.833,207.5 267.5,207.5C 268.126,203.625 266.459,201.791 262.5,202C 261.919,201.107 261.585,200.107 261.5,199C 264.048,196.397 265.381,193.231 265.5,189.5C 260.207,190.742 257.207,194.075 256.5,199.5C 254.215,196.665 252.882,193.332 252.5,189.5C 249.41,188.83 247.743,189.997 247.5,193C 249.001,196.641 250.667,200.141 252.5,203.5C 252.5,204.167 252.5,204.833 252.5,205.5C 252.5,208.833 252.5,212.167 252.5,215.5C 250.941,212.132 250.108,208.465 250,204.5C 249.5,210.825 249.334,217.158 249.5,223.5C 248.5,223.5 247.5,223.5 246.5,223.5C 246.219,218.692 246.886,214.026 248.5,209.5C 247.603,205.896 245.937,205.563 243.5,208.5C 244.633,212.632 244.633,216.799 243.5,221C 243.908,222.93 244.575,224.764 245.5,226.5C 244.214,228.626 243.381,230.959 243,233.5C 241.746,230.024 241.079,226.358 241,222.5C 240.586,222.957 240.086,223.291 239.5,223.5C 238.828,222.051 238.161,220.718 237.5,219.5C 237.334,215.486 237.501,211.486 238,207.5C 239,209.5 240,211.5 241,213.5C 241.333,211.5 241.667,209.5 242,207.5C 245.382,203.094 246.382,198.094 245,192.5C 244.632,193.91 243.799,194.91 242.5,195.5C 240.524,192.29 239.858,188.957 240.5,185.5C 241.382,186.76 242.382,187.926 243.5,189C 246.811,188.785 250.144,188.785 253.5,189C 256.793,192.098 258.126,191.098 257.5,186C 257.492,184.293 257.158,182.793 256.5,181.5 Z"/></g>
<g><path style="opacity:1" fill="#e2e0ce" d="M 194.5,230.5 C 195.301,228.958 195.634,227.292 195.5,225.5C 196.883,221.754 199.05,218.421 202,215.5C 201.966,220.851 201.466,226.184 200.5,231.5C 202.512,230.986 204.512,230.82 206.5,231C 203.794,236.247 200.96,241.414 198,246.5C 196.26,245.284 195.26,243.618 195,241.5C 194.501,237.848 194.335,234.182 194.5,230.5 Z"/></g>
<g><path style="opacity:0.192" fill="#293542" d="M 287.5,197.5 C 292.749,214.165 296.582,231.165 299,248.5C 300.045,249.373 300.878,250.373 301.5,251.5C 300.07,251.421 298.736,251.754 297.5,252.5C 296.791,245.478 295.957,238.478 295,231.5C 294.422,228.47 293.255,225.803 291.5,223.5C 292.042,219.456 291.209,215.789 289,212.5C 288.775,208.189 287.942,204.022 286.5,200C 286.528,198.93 286.861,198.097 287.5,197.5 Z"/></g>
<g><path style="opacity:1" fill="#d8311b" d="M 252.5,215.5 C 253.222,215.918 253.722,216.584 254,217.5C 254.5,234.497 254.667,251.497 254.5,268.5C 249.125,268.172 243.792,268.505 238.5,269.5C 235.451,271.466 232.118,271.966 228.5,271C 227.881,269.243 226.714,268.076 225,267.5C 217.21,268.453 209.377,268.786 201.5,268.5C 201.5,268.167 201.5,267.833 201.5,267.5C 201.423,266.25 200.756,265.417 199.5,265C 196.167,265 192.833,265 189.5,265C 187.777,264.477 186.444,263.477 185.5,262C 183.762,256.394 184.596,251.227 188,246.5C 189.049,245.483 190.216,245.316 191.5,246C 192.103,248.071 193.436,249.238 195.5,249.5C 198.14,249.954 200.473,251.121 202.5,253C 200.804,255.587 199.804,258.421 199.5,261.5C 203.107,261.621 205.273,259.955 206,256.5C 206.671,255.748 207.504,255.414 208.5,255.5C 213.278,253.345 218.278,251.511 223.5,250C 232.209,241.711 235.875,231.544 234.5,219.5C 235.5,220.833 236.5,220.833 237.5,219.5C 238.161,220.718 238.828,222.051 239.5,223.5C 240.086,223.291 240.586,222.957 241,222.5C 241.079,226.358 241.746,230.024 243,233.5C 243.381,230.959 244.214,228.626 245.5,226.5C 244.575,224.764 243.908,222.93 243.5,221C 244.633,216.799 244.633,212.632 243.5,208.5C 245.937,205.563 247.603,205.896 248.5,209.5C 246.886,214.026 246.219,218.692 246.5,223.5C 247.5,223.5 248.5,223.5 249.5,223.5C 249.334,217.158 249.5,210.825 250,204.5C 250.108,208.465 250.941,212.132 252.5,215.5 Z"/></g>
<g><path style="opacity:1" fill="#db301a" d="M 275.5,223.5 C 275.47,234.181 275.804,244.848 276.5,255.5C 275.288,256.23 274.288,257.23 273.5,258.5C 272.575,257.359 271.741,257.359 271,258.5C 270.667,257.833 270.333,257.167 270,256.5C 269.055,245.499 268.222,234.499 267.5,223.5C 266.448,223.351 265.448,223.517 264.5,224C 265.218,231.753 266.218,239.42 267.5,247C 267.333,249.5 267.167,252 267,254.5C 265.506,255.747 264.006,255.747 262.5,254.5C 262.833,253.833 263.167,253.167 263.5,252.5C 263.196,242.493 262.196,232.826 260.5,223.5C 260.818,218.968 260.485,214.634 259.5,210.5C 257.926,207.093 256.926,203.427 256.5,199.5C 257.207,194.075 260.207,190.742 265.5,189.5C 265.381,193.231 264.048,196.397 261.5,199C 261.585,200.107 261.919,201.107 262.5,202C 266.459,201.791 268.126,203.625 267.5,207.5C 268.833,207.5 270.167,207.5 271.5,207.5C 271.612,212.44 270.945,217.273 269.5,222C 270.028,224.862 270.695,227.696 271.5,230.5C 271.833,230.333 272.167,230.167 272.5,230C 272.859,227.37 273.859,225.203 275.5,223.5 Z"/></g>
<g><path style="opacity:1" fill="#28130d" d="M 221.5,207.5 C 223.604,207.201 225.604,207.534 227.5,208.5C 230.232,211.065 232.232,214.065 233.5,217.5C 235.077,235.254 227.41,246.921 210.5,252.5C 209.807,253.518 209.141,254.518 208.5,255.5C 207.504,255.414 206.671,255.748 206,256.5C 205.273,259.955 203.107,261.621 199.5,261.5C 199.804,258.421 200.804,255.587 202.5,253C 200.473,251.121 198.14,249.954 195.5,249.5C 195.023,246.345 194.023,243.345 192.5,240.5C 192.335,237.482 192.502,234.482 193,231.5C 193.383,230.944 193.883,230.611 194.5,230.5C 194.335,234.182 194.501,237.848 195,241.5C 195.26,243.618 196.26,245.284 198,246.5C 200.96,241.414 203.794,236.247 206.5,231C 204.512,230.82 202.512,230.986 200.5,231.5C 201.466,226.184 201.966,220.851 202,215.5C 199.05,218.421 196.883,221.754 195.5,225.5C 195.17,218.8 195.503,212.134 196.5,205.5C 197.167,208.642 197.834,211.642 198.5,214.5C 200.062,214.267 201.395,213.6 202.5,212.5C 203.728,211.694 204.728,210.694 205.5,209.5C 204.835,215.477 204.502,221.477 204.5,227.5C 205.93,227.579 207.264,227.246 208.5,226.5C 208.833,227 209.167,227.5 209.5,228C 208.726,230.154 208.059,232.321 207.5,234.5C 205.973,237.719 204.307,240.885 202.5,244C 204.134,244.494 205.801,244.66 207.5,244.5C 206.737,247.141 206.57,249.808 207,252.5C 210.298,248.2 213.965,244.2 218,240.5C 217.813,238.199 216.646,237.865 214.5,239.5C 214.167,239 213.833,238.5 213.5,238C 214.32,236.2 214.986,234.366 215.5,232.5C 218.699,229.282 221.033,225.448 222.5,221C 220.203,220.982 217.869,221.149 215.5,221.5C 215.401,218.763 215.735,216.096 216.5,213.5C 217.11,212.609 217.443,211.609 217.5,210.5C 218.833,208.833 218.833,207.167 217.5,205.5C 217.811,204.522 218.478,203.855 219.5,203.5C 220.172,204.949 220.839,206.282 221.5,207.5 Z"/></g>
<g><path style="opacity:1" fill="#f3d932" d="M 212.5,208.5 C 211.975,213.011 211.308,217.511 210.5,222C 211.641,224.163 212.307,226.496 212.5,229C 211.458,233.087 210.124,237.087 208.5,241C 209.125,242.841 209.292,244.674 209,246.5C 208.722,245.584 208.222,244.918 207.5,244.5C 205.801,244.66 204.134,244.494 202.5,244C 204.307,240.885 205.973,237.719 207.5,234.5C 209.343,232.841 210.343,230.675 210.5,228C 210.291,226.129 209.291,224.962 207.5,224.5C 206.338,219.869 206.172,215.202 207,210.5C 208.815,209.756 210.648,209.089 212.5,208.5 Z"/></g>
<g><path style="opacity:1" fill="#e3dbd2" d="M 220.5,210.5 C 225.448,210.267 228.615,212.601 230,217.5C 232.255,229.151 228.755,238.651 219.5,246C 218.241,246.982 216.908,247.315 215.5,247C 219.733,242.672 223.066,237.838 225.5,232.5C 223.09,233.063 220.757,233.563 218.5,234C 221.933,227.969 224.933,221.802 227.5,215.5C 224.74,216.569 221.907,217.569 219,218.5C 218.955,215.78 219.455,213.114 220.5,210.5 Z"/></g>
<g><path style="opacity:1" fill="#d9cb54" d="M 217.5,205.5 C 218.833,207.167 218.833,208.833 217.5,210.5C 217.5,209.5 217.5,208.5 217.5,207.5C 215.708,207.366 214.042,207.699 212.5,208.5C 210.648,209.089 208.815,209.756 207,210.5C 206.172,215.202 206.338,219.869 207.5,224.5C 209.291,224.962 210.291,226.129 210.5,228C 210.343,230.675 209.343,232.841 207.5,234.5C 208.059,232.321 208.726,230.154 209.5,228C 209.167,227.5 208.833,227 208.5,226.5C 207.264,227.246 205.93,227.579 204.5,227.5C 204.502,221.477 204.835,215.477 205.5,209.5C 209.5,208.167 213.5,206.833 217.5,205.5 Z"/></g>
<g><path style="opacity:1" fill="#e7a91f" d="M 217.5,210.5 C 217.443,211.609 217.11,212.609 216.5,213.5C 215.5,213.5 214.5,213.5 213.5,213.5C 213.183,216.572 213.516,219.572 214.5,222.5C 216.225,223.015 217.892,223.682 219.5,224.5C 217.095,226.642 215.762,229.309 215.5,232.5C 214.986,234.366 214.32,236.2 213.5,238C 213.833,238.5 214.167,239 214.5,239.5C 216.646,237.865 217.813,238.199 218,240.5C 213.965,244.2 210.298,248.2 207,252.5C 206.57,249.808 206.737,247.141 207.5,244.5C 208.222,244.918 208.722,245.584 209,246.5C 209.292,244.674 209.125,242.841 208.5,241C 210.124,237.087 211.458,233.087 212.5,229C 212.307,226.496 211.641,224.163 210.5,222C 211.308,217.511 211.975,213.011 212.5,208.5C 214.042,207.699 215.708,207.366 217.5,207.5C 217.5,208.5 217.5,209.5 217.5,210.5 Z"/></g>
<g><path style="opacity:1" fill="#dba242" d="M 216.5,213.5 C 215.735,216.096 215.401,218.763 215.5,221.5C 217.869,221.149 220.203,220.982 222.5,221C 221.033,225.448 218.699,229.282 215.5,232.5C 215.762,229.309 217.095,226.642 219.5,224.5C 217.892,223.682 216.225,223.015 214.5,222.5C 213.516,219.572 213.183,216.572 213.5,213.5C 214.5,213.5 215.5,213.5 216.5,213.5 Z"/></g>
<g><path style="opacity:1" fill="#a33d37" d="M 277.5,231.5 C 278.492,239.32 279.159,247.32 279.5,255.5C 279.497,258.355 279.164,261.022 278.5,263.5C 277.688,252.854 277.354,242.187 277.5,231.5 Z"/></g>
<g><path style="opacity:1" fill="#bc3b2f" d="M 287.5,213.5 C 289.137,216.717 290.47,220.05 291.5,223.5C 292.31,229.141 293.144,234.807 294,240.5C 295.641,248.14 294.141,254.973 289.5,261C 287.544,262.612 285.544,262.778 283.5,261.5C 283.5,260.833 283.5,260.167 283.5,259.5C 285.391,260.536 287.224,260.536 289,259.5C 290.382,254.539 291.548,249.539 292.5,244.5C 290.368,234.243 288.701,223.91 287.5,213.5 Z"/></g>
<g><path style="opacity:1" fill="#a5362b" d="M 192.5,240.5 C 194.023,243.345 195.023,246.345 195.5,249.5C 193.436,249.238 192.103,248.071 191.5,246C 190.216,245.316 189.049,245.483 188,246.5C 184.596,251.227 183.762,256.394 185.5,262C 186.444,263.477 187.777,264.477 189.5,265C 192.833,265 196.167,265 199.5,265C 200.756,265.417 201.423,266.25 201.5,267.5C 199.742,267.123 198.075,266.456 196.5,265.5C 193.972,266.498 193.972,267.331 196.5,268C 186.107,268.608 181.607,263.775 183,253.5C 184.322,248.672 186.489,244.338 189.5,240.5C 190.5,239.167 191.5,239.167 192.5,240.5 Z"/></g>
<g><path style="opacity:1" fill="#bc3931" d="M 233.5,217.5 C 234.338,217.842 234.672,218.508 234.5,219.5C 235.875,231.544 232.209,241.711 223.5,250C 218.278,251.511 213.278,253.345 208.5,255.5C 209.141,254.518 209.807,253.518 210.5,252.5C 227.41,246.921 235.077,235.254 233.5,217.5 Z"/></g>
<g><path style="opacity:1" fill="#d3d5d8" d="M 200.5,248.5 C 201.708,247.218 203.042,247.218 204.5,248.5C 203.192,249.626 201.858,249.626 200.5,248.5 Z"/></g>
<g><path style="opacity:0.094" fill="#3d5a62" d="M 301.5,251.5 C 302.966,252.347 303.8,253.68 304,255.5C 304.887,259.325 305.721,263.158 306.5,267C 306.192,268.459 305.525,269.626 304.5,270.5C 304.335,264.013 303.335,257.68 301.5,251.5 Z"/></g>
<g><path style="opacity:0.133" fill="#435160" d="M 183.5,211.5 C 184.671,218.197 186.004,224.864 187.5,231.5C 187.5,231.833 187.5,232.167 187.5,232.5C 187.716,239.082 185.883,245.082 182,250.5C 179.966,255.47 180.133,260.303 182.5,265C 181.099,265.41 179.766,265.91 178.5,266.5C 178.273,257.242 180.439,248.575 185,240.5C 185.163,230.807 184.663,221.14 183.5,211.5 Z"/></g>
<g><path style="opacity:1" fill="#d63219" d="M 285.5,207.5 C 285.12,209.698 285.787,211.365 287.5,212.5C 287.5,212.833 287.5,213.167 287.5,213.5C 288.701,223.91 290.368,234.243 292.5,244.5C 291.548,249.539 290.382,254.539 289,259.5C 287.224,260.536 285.391,260.536 283.5,259.5C 283.5,258.167 283.5,256.833 283.5,255.5C 282.537,241.106 281.87,226.773 281.5,212.5C 281.341,209.813 282.175,207.48 284,205.5C 284.278,206.416 284.778,207.082 285.5,207.5 Z"/></g>
<g><path style="opacity:1" fill="#410506" d="M 258.5,271.5 C 256.625,290.828 256.292,310.161 257.5,329.5C 255.952,329.821 255.285,330.821 255.5,332.5C 254.698,331.048 254.198,329.382 254,327.5C 253.5,316.505 253.333,305.505 253.5,294.5C 251.167,294.5 248.833,294.5 246.5,294.5C 245.833,294.5 245.5,294.167 245.5,293.5C 249.015,293.288 252.348,293.288 255.5,293.5C 256.819,286.01 256.819,278.677 255.5,271.5C 255.667,253.164 255.5,234.83 255,216.5C 254.205,212.688 253.371,209.021 252.5,205.5C 252.5,204.833 252.5,204.167 252.5,203.5C 252.013,199.526 250.68,195.859 248.5,192.5C 249,192.167 249.5,191.833 250,191.5C 252.893,196.486 255.226,201.819 257,207.5C 258.404,228.801 258.904,250.134 258.5,271.5 Z"/></g>
<g><path style="opacity:1" fill="#bd3d32" d="M 252.5,205.5 C 253.371,209.021 254.205,212.688 255,216.5C 255.5,234.83 255.667,253.164 255.5,271.5C 247.813,271.353 240.146,271.686 232.5,272.5C 229.328,272.551 226.328,271.884 223.5,270.5C 216.532,269.503 209.532,269.17 202.5,269.5C 201.833,269.5 201.5,269.167 201.5,268.5C 209.377,268.786 217.21,268.453 225,267.5C 226.714,268.076 227.881,269.243 228.5,271C 232.118,271.966 235.451,271.466 238.5,269.5C 243.792,268.505 249.125,268.172 254.5,268.5C 254.667,251.497 254.5,234.497 254,217.5C 253.722,216.584 253.222,215.918 252.5,215.5C 252.5,212.167 252.5,208.833 252.5,205.5 Z"/></g>
<g><path style="opacity:1" fill="#1c0b07" d="M 291.5,223.5 C 293.255,225.803 294.422,228.47 295,231.5C 295.957,238.478 296.791,245.478 297.5,252.5C 298.736,251.754 300.07,251.421 301.5,251.5C 303.335,257.68 304.335,264.013 304.5,270.5C 302.104,271.3 299.771,272.3 297.5,273.5C 300.15,281.622 300.15,289.622 297.5,297.5C 298.293,292.327 298.293,287.327 297.5,282.5C 296.203,280.228 294.203,279.395 291.5,280C 289.771,282.703 287.771,285.203 285.5,287.5C 284.672,293.653 284.172,299.987 284,306.5C 283.623,305.058 282.79,304.058 281.5,303.5C 281.936,296.684 281.269,290.017 279.5,283.5C 279.803,281.886 280.47,280.552 281.5,279.5C 282.822,279.67 283.989,279.337 285,278.5C 285.629,274.129 285.463,269.796 284.5,265.5C 283.5,265.5 282.5,265.5 281.5,265.5C 281.795,267.735 281.461,269.735 280.5,271.5C 279.39,268.832 279.39,265.999 280.5,263C 280.682,260.422 281.682,259.922 283.5,261.5C 285.544,262.778 287.544,262.612 289.5,261C 294.141,254.973 295.641,248.14 294,240.5C 293.144,234.807 292.31,229.141 291.5,223.5 Z"/></g>
<g><path style="opacity:1" fill="#dba43a" d="M 291.5,262.5 C 292.5,262.5 293.5,262.5 294.5,262.5C 295.008,265.176 295.175,267.843 295,270.5C 292.75,271.708 290.583,273.041 288.5,274.5C 287.741,271.843 287.074,269.177 286.5,266.5C 288.015,264.918 289.681,263.584 291.5,262.5 Z"/></g>
<g><path style="opacity:1" fill="#cc9e47" d="M 297.5,254.5 C 298.496,254.414 299.329,254.748 300,255.5C 302.104,259.922 302.937,264.588 302.5,269.5C 300.856,269.714 299.356,269.38 298,268.5C 296.812,263.779 296.646,259.112 297.5,254.5 Z"/></g>
<g><path style="opacity:1" fill="#d39d3a" d="M 281.5,279.5 C 280.527,277.052 280.194,274.385 280.5,271.5C 281.461,269.735 281.795,267.735 281.5,265.5C 282.5,265.5 283.5,265.5 284.5,265.5C 285.463,269.796 285.629,274.129 285,278.5C 283.989,279.337 282.822,279.67 281.5,279.5 Z"/></g>
<g><path style="opacity:1" fill="#d8cf50" d="M 204.5,276.5 C 202.825,279.507 202.159,282.84 202.5,286.5C 201.041,286.567 199.708,286.234 198.5,285.5C 199.167,280.833 199.833,276.167 200.5,271.5C 202.167,271.5 203.833,271.5 205.5,271.5C 205.371,273.216 205.038,274.883 204.5,276.5 Z"/></g>
<g><path style="opacity:0.757" fill="#1d1207" d="M 187.5,232.5 C 189.818,234.794 190.485,237.461 189.5,240.5C 186.489,244.338 184.322,248.672 183,253.5C 181.607,263.775 186.107,268.608 196.5,268C 193.972,267.331 193.972,266.498 196.5,265.5C 198.075,266.456 199.742,267.123 201.5,267.5C 201.5,267.833 201.5,268.167 201.5,268.5C 201.5,269.167 201.833,269.5 202.5,269.5C 203.568,270.434 204.901,270.768 206.5,270.5C 206.752,273.32 206.252,275.986 205,278.5C 204.536,277.906 204.369,277.239 204.5,276.5C 205.038,274.883 205.371,273.216 205.5,271.5C 203.833,271.5 202.167,271.5 200.5,271.5C 199.833,276.167 199.167,280.833 198.5,285.5C 197.599,284.71 196.932,283.71 196.5,282.5C 196.5,281.5 196.5,280.5 196.5,279.5C 197.473,277.052 197.806,274.385 197.5,271.5C 195.833,271.5 194.167,271.5 192.5,271.5C 190.485,270.076 188.152,269.41 185.5,269.5C 185.045,272.203 184.378,274.87 183.5,277.5C 183.833,278.167 184.167,278.833 184.5,279.5C 187.793,279.976 190.793,280.976 193.5,282.5C 189.321,281.774 185.321,281.774 181.5,282.5C 179.5,282.833 177.5,283.167 175.5,283.5C 174.291,278.184 175.291,273.184 178.5,268.5C 178.376,267.893 178.043,267.56 177.5,267.5C 177.5,266.833 177.833,266.5 178.5,266.5C 179.766,265.91 181.099,265.41 182.5,265C 180.133,260.303 179.966,255.47 182,250.5C 185.883,245.082 187.716,239.082 187.5,232.5 Z"/></g>
<g><path style="opacity:1" fill="#cac66d" d="M 180.5,268.5 C 181.5,268.5 182.5,268.5 183.5,268.5C 182.571,272.284 181.238,275.951 179.5,279.5C 178.675,280.386 177.675,280.719 176.5,280.5C 177.833,276.5 179.167,272.5 180.5,268.5 Z"/></g>
<g><path style="opacity:1" fill="#f3df22" d="M 192.5,271.5 C 194.167,271.5 195.833,271.5 197.5,271.5C 197.806,274.385 197.473,277.052 196.5,279.5C 192.991,280.157 189.658,279.324 186.5,277C 186.471,272.891 188.471,271.057 192.5,271.5 Z"/></g>
<g><path style="opacity:1" fill="#d4be42" d="M 192.5,271.5 C 188.471,271.057 186.471,272.891 186.5,277C 189.658,279.324 192.991,280.157 196.5,279.5C 196.5,280.5 196.5,281.5 196.5,282.5C 195.5,282.5 194.5,282.5 193.5,282.5C 190.793,280.976 187.793,279.976 184.5,279.5C 184.167,278.833 183.833,278.167 183.5,277.5C 184.378,274.87 185.045,272.203 185.5,269.5C 188.152,269.41 190.485,270.076 192.5,271.5 Z"/></g>
<g><path style="opacity:1" fill="#a73b31" d="M 297.5,282.5 C 297.135,289.724 296.135,296.724 294.5,303.5C 295.118,296.183 295.451,288.849 295.5,281.5C 294.167,281.5 292.833,281.5 291.5,281.5C 291.649,282.552 291.483,283.552 291,284.5C 289.488,285.257 288.154,286.257 287,287.5C 286.501,292.823 286.334,298.156 286.5,303.5C 285.512,298.36 285.179,293.026 285.5,287.5C 287.771,285.203 289.771,282.703 291.5,280C 294.203,279.395 296.203,280.228 297.5,282.5 Z"/></g>
<g><path style="opacity:1" fill="#250e03" d="M 202.5,269.5 C 209.532,269.17 216.532,269.503 223.5,270.5C 226.328,271.884 229.328,272.551 232.5,272.5C 240.146,271.686 247.813,271.353 255.5,271.5C 256.819,278.677 256.819,286.01 255.5,293.5C 252.348,293.288 249.015,293.288 245.5,293.5C 244.791,292.596 243.791,292.263 242.5,292.5C 240.366,290.967 237.866,290.3 235,290.5C 232.399,290.514 230.232,291.347 228.5,293C 225.854,293.497 223.187,293.664 220.5,293.5C 220.191,290.654 218.525,289.154 215.5,289C 209.976,288.374 204.643,288.874 199.5,290.5C 198.26,288.012 196.26,286.179 193.5,285C 189.586,283.717 185.586,282.884 181.5,282.5C 185.321,281.774 189.321,281.774 193.5,282.5C 194.5,282.5 195.5,282.5 196.5,282.5C 196.932,283.71 197.599,284.71 198.5,285.5C 199.708,286.234 201.041,286.567 202.5,286.5C 202.159,282.84 202.825,279.507 204.5,276.5C 204.369,277.239 204.536,277.906 205,278.5C 206.252,275.986 206.752,273.32 206.5,270.5C 204.901,270.768 203.568,270.434 202.5,269.5 Z"/></g>
<g><path style="opacity:1" fill="#c7ab59" d="M 251.5,274.5 C 252.5,274.5 253.5,274.5 254.5,274.5C 254.5,278.833 254.5,283.167 254.5,287.5C 253.167,287.5 251.833,287.5 250.5,287.5C 250.467,283.131 250.8,278.798 251.5,274.5 Z"/></g>
<g><path style="opacity:1" fill="#e0b630" d="M 228.5,275.5 C 233.5,275.5 238.5,275.5 243.5,275.5C 243.5,279.5 243.5,283.5 243.5,287.5C 238.5,287.5 233.5,287.5 228.5,287.5C 228.5,283.5 228.5,279.5 228.5,275.5 Z"/></g>
<g><path style="opacity:1" fill="#e9da4f" d="M 225.5,287.5 C 224.817,289.176 223.483,289.843 221.5,289.5C 221.5,286.167 221.5,282.833 221.5,279.5C 222.451,278.081 222.784,276.415 222.5,274.5C 223.5,274.5 224.5,274.5 225.5,274.5C 225.5,278.833 225.5,283.167 225.5,287.5 Z"/></g>
<g><path style="opacity:1" fill="#c5c260" d="M 245.5,273.5 C 246.5,273.5 247.5,273.5 248.5,273.5C 248.5,278.833 248.5,284.167 248.5,289.5C 247.5,289.5 246.5,289.5 245.5,289.5C 245.5,284.167 245.5,278.833 245.5,273.5 Z"/></g>
<g><path style="opacity:1" fill="#f5e41b" d="M 232.5,276.5 C 235.833,276.5 239.167,276.5 242.5,276.5C 242.5,279.833 242.5,283.167 242.5,286.5C 239.167,286.5 235.833,286.5 232.5,286.5C 232.5,283.167 232.5,279.833 232.5,276.5 Z"/></g>
<g><path style="opacity:1" fill="#d5a635" d="M 214.5,273.5 C 213.167,273.5 211.833,273.5 210.5,273.5C 209.728,277.452 209.395,281.452 209.5,285.5C 207.821,285.108 206.154,284.608 204.5,284C 206.233,280.364 207.233,276.531 207.5,272.5C 210.059,272.198 212.393,272.532 214.5,273.5 Z"/></g>
<g><path style="opacity:1" fill="#f6de21" d="M 214.5,273.5 C 215.568,274.434 216.901,274.768 218.5,274.5C 218.5,278.167 218.5,281.833 218.5,285.5C 216.167,285.5 213.833,285.5 211.5,285.5C 210.833,285.5 210.167,285.5 209.5,285.5C 209.395,281.452 209.728,277.452 210.5,273.5C 211.833,273.5 213.167,273.5 214.5,273.5 Z"/></g>
<g><path style="opacity:1" fill="#5f530b" d="M 225.5,287.5 C 225.5,283.167 225.5,278.833 225.5,274.5C 224.5,274.5 223.5,274.5 222.5,274.5C 222.784,276.415 222.451,278.081 221.5,279.5C 221.5,277.5 221.5,275.5 221.5,273.5C 223.167,273.5 224.833,273.5 226.5,273.5C 226.819,278.363 226.486,283.03 225.5,287.5 Z"/></g>
<g><path style="opacity:1" fill="#bab44f" d="M 214.5,273.5 C 216.167,273.5 217.833,273.5 219.5,273.5C 219.5,277.833 219.5,282.167 219.5,286.5C 216.615,286.806 213.948,286.473 211.5,285.5C 213.833,285.5 216.167,285.5 218.5,285.5C 218.5,281.833 218.5,278.167 218.5,274.5C 216.901,274.768 215.568,274.434 214.5,273.5 Z"/></g>
<g><path style="opacity:0.059" fill="#415560" d="M 177.5,267.5 C 178.043,267.56 178.376,267.893 178.5,268.5C 175.291,273.184 174.291,278.184 175.5,283.5C 171.587,292.775 171.587,302.108 175.5,311.5C 173.59,310.025 172.424,308.025 172,305.5C 171.182,295.399 171.849,285.399 174,275.5C 175.076,272.763 176.243,270.096 177.5,267.5 Z"/></g>
<g><path style="opacity:1" fill="#d13420" d="M 294.5,303.5 C 293.473,307.217 291.639,310.55 289,313.5C 287.722,310.279 286.889,306.946 286.5,303.5C 286.334,298.156 286.501,292.823 287,287.5C 288.154,286.257 289.488,285.257 291,284.5C 291.483,283.552 291.649,282.552 291.5,281.5C 292.833,281.5 294.167,281.5 295.5,281.5C 295.451,288.849 295.118,296.183 294.5,303.5 Z"/></g>
<g><path style="opacity:1" fill="#a4352e" d="M 242.5,292.5 C 238.869,291.588 235.203,291.421 231.5,292C 226.29,296.461 221.29,296.128 216.5,291C 210.659,291.135 204.992,290.969 199.5,290.5C 204.643,288.874 209.976,288.374 215.5,289C 218.525,289.154 220.191,290.654 220.5,293.5C 223.187,293.664 225.854,293.497 228.5,293C 230.232,291.347 232.399,290.514 235,290.5C 237.866,290.3 240.366,290.967 242.5,292.5 Z"/></g>
<g><path style="opacity:1" fill="#da3118" d="M 260.5,287.5 C 260.5,282.167 260.5,276.833 260.5,271.5C 261.588,268.378 262.922,265.378 264.5,262.5C 265.833,264.167 267.167,265.833 268.5,267.5C 269.519,266.313 270.686,265.313 272,264.5C 273.932,268.101 273.932,271.768 272,275.5C 271.333,276.833 270.667,276.833 270,275.5C 269.328,269.771 268.328,269.437 267,274.5C 266.682,284.75 267.182,294.917 268.5,305C 267.531,309.737 267.197,314.57 267.5,319.5C 266.167,319.5 264.833,319.5 263.5,319.5C 263.088,312.465 263.755,305.631 265.5,299C 265.577,296.949 265.077,295.116 264,293.5C 263.112,301.815 262.446,310.149 262,318.5C 261.586,318.957 261.086,319.291 260.5,319.5C 259.389,308.836 259.389,298.169 260.5,287.5 Z"/></g>
<g><path style="opacity:1" fill="#d8311b" d="M 199.5,290.5 C 204.992,290.969 210.659,291.135 216.5,291C 221.29,296.128 226.29,296.461 231.5,292C 235.203,291.421 238.869,291.588 242.5,292.5C 243.791,292.263 244.791,292.596 245.5,293.5C 245.5,294.167 245.833,294.5 246.5,294.5C 248.265,295.461 250.265,295.795 252.5,295.5C 250.906,308.93 251.24,322.264 253.5,335.5C 247.516,336.332 241.516,336.499 235.5,336C 232.956,332.293 229.956,329.126 226.5,326.5C 225.833,325.833 225.167,325.167 224.5,324.5C 223.928,321.756 222.262,320.923 219.5,322C 218.09,322.368 217.09,323.201 216.5,324.5C 218.316,325.815 219.983,327.315 221.5,329C 217.848,329.499 214.182,329.665 210.5,329.5C 207.135,328.96 203.802,328.294 200.5,327.5C 198.435,327.047 196.768,326.047 195.5,324.5C 194.933,322.97 194.267,321.47 193.5,320C 191.048,319.71 188.715,319.044 186.5,318C 185.589,315.585 183.922,314.085 181.5,313.5C 181.5,313.167 181.5,312.833 181.5,312.5C 180.987,309.14 179.653,306.14 177.5,303.5C 172.352,288.268 177.352,282.435 192.5,286C 194.551,288.02 196.884,289.52 199.5,290.5 Z"/></g>
<g><path style="opacity:1" fill="#b33d30" d="M 181.5,282.5 C 185.586,282.884 189.586,283.717 193.5,285C 196.26,286.179 198.26,288.012 199.5,290.5C 196.884,289.52 194.551,288.02 192.5,286C 177.352,282.435 172.352,288.268 177.5,303.5C 179.653,306.14 180.987,309.14 181.5,312.5C 178.824,310.974 176.991,308.64 176,305.5C 174.23,298.864 174.063,292.198 175.5,285.5C 178.089,285.539 180.089,284.539 181.5,282.5 Z"/></g>
<g><path style="opacity:1" fill="#bb3e32" d="M 259.5,210.5 C 260.485,214.634 260.818,218.968 260.5,223.5C 260.5,239.5 260.5,255.5 260.5,271.5C 260.5,276.833 260.5,282.167 260.5,287.5C 259.691,289.292 259.191,291.292 259,293.5C 258.333,305.167 258.333,316.833 259,328.5C 260.848,331.041 263.348,332.041 266.5,331.5C 266.463,332.302 265.463,332.635 263.5,332.5C 260.95,332.383 258.95,331.383 257.5,329.5C 256.292,310.161 256.625,290.828 258.5,271.5C 259.497,251.34 259.83,231.007 259.5,210.5 Z"/></g>
<g><path style="opacity:1" fill="#ad3832" d="M 181.5,313.5 C 183.922,314.085 185.589,315.585 186.5,318C 188.715,319.044 191.048,319.71 193.5,320C 194.267,321.47 194.933,322.97 195.5,324.5C 189.08,323.081 184.413,319.415 181.5,313.5 Z"/></g>
<g><path style="opacity:0.247" fill="#2f374b" d="M 175.5,311.5 C 178.932,312.599 180.932,314.933 181.5,318.5C 178.757,316.761 176.757,314.427 175.5,311.5 Z"/></g>
<g><path style="opacity:1" fill="#d7321b" d="M 260.5,223.5 C 262.196,232.826 263.196,242.493 263.5,252.5C 263.167,253.167 262.833,253.833 262.5,254.5C 264.006,255.747 265.506,255.747 267,254.5C 267.167,252 267.333,249.5 267.5,247C 266.218,239.42 265.218,231.753 264.5,224C 265.448,223.517 266.448,223.351 267.5,223.5C 268.222,234.499 269.055,245.499 270,256.5C 270.333,257.167 270.667,257.833 271,258.5C 271.741,257.359 272.575,257.359 273.5,258.5C 274.288,257.23 275.288,256.23 276.5,255.5C 276.646,269.132 276.812,282.799 277,296.5C 278.276,298.858 279.442,301.192 280.5,303.5C 280.833,303.5 281.167,303.5 281.5,303.5C 282.999,307.84 284.332,312.173 285.5,316.5C 285.5,318.167 285.5,319.833 285.5,321.5C 283.833,321.5 282.167,321.5 280.5,321.5C 280.579,322.93 280.246,324.264 279.5,325.5C 275.373,326.511 271.373,327.511 267.5,328.5C 266.596,329.209 266.263,330.209 266.5,331.5C 263.348,332.041 260.848,331.041 259,328.5C 258.333,316.833 258.333,305.167 259,293.5C 259.191,291.292 259.691,289.292 260.5,287.5C 259.389,298.169 259.389,308.836 260.5,319.5C 261.086,319.291 261.586,318.957 262,318.5C 262.446,310.149 263.112,301.815 264,293.5C 265.077,295.116 265.577,296.949 265.5,299C 263.755,305.631 263.088,312.465 263.5,319.5C 264.833,319.5 266.167,319.5 267.5,319.5C 267.197,314.57 267.531,309.737 268.5,305C 267.182,294.917 266.682,284.75 267,274.5C 268.328,269.437 269.328,269.771 270,275.5C 270.667,276.833 271.333,276.833 272,275.5C 273.932,271.768 273.932,268.101 272,264.5C 270.686,265.313 269.519,266.313 268.5,267.5C 267.167,265.833 265.833,264.167 264.5,262.5C 262.922,265.378 261.588,268.378 260.5,271.5C 260.5,255.5 260.5,239.5 260.5,223.5 Z"/></g>
<g><path style="opacity:0.161" fill="#374657" d="M 304.5,270.5 C 302.768,272 301.101,273.667 299.5,275.5C 301.285,286.379 300.451,297.046 297,307.5C 295.729,310.433 294.062,313.099 292,315.5C 291.51,317.545 291.677,319.545 292.5,321.5C 291.833,321.167 291.167,320.833 290.5,320.5C 290.322,319.305 289.989,318.138 289.5,317C 290.862,312.978 293.028,309.478 296,306.5C 297.149,303.607 297.649,300.607 297.5,297.5C 300.15,289.622 300.15,281.622 297.5,273.5C 299.771,272.3 302.104,271.3 304.5,270.5 Z"/></g>
<g><path style="opacity:0.067" fill="#405367" d="M 181.5,318.5 C 183.246,319.249 184.246,320.583 184.5,322.5C 183.215,328.839 183.215,335.172 184.5,341.5C 183.778,341.082 183.278,340.416 183,339.5C 182.761,332.452 182.261,325.452 181.5,318.5 Z"/></g>
<g><path style="opacity:1" fill="#b63d31" d="M 285.5,316.5 C 287.669,318.34 289.002,320.674 289.5,323.5C 287.473,323.338 285.473,323.505 283.5,324C 282.939,325.676 281.939,327.009 280.5,328C 276.179,328.499 271.846,328.666 267.5,328.5C 271.373,327.511 275.373,326.511 279.5,325.5C 280.246,324.264 280.579,322.93 280.5,321.5C 282.167,321.5 283.833,321.5 285.5,321.5C 285.5,319.833 285.5,318.167 285.5,316.5 Z"/></g>
<g><path style="opacity:1" fill="#bc3d34" d="M 246.5,294.5 C 248.833,294.5 251.167,294.5 253.5,294.5C 253.333,305.505 253.5,316.505 254,327.5C 254.198,329.382 254.698,331.048 255.5,332.5C 256.451,333.919 256.784,335.585 256.5,337.5C 248.833,337.5 241.167,337.5 233.5,337.5C 232.343,335.322 231.01,333.322 229.5,331.5C 228.752,329.668 227.752,328.001 226.5,326.5C 229.956,329.126 232.956,332.293 235.5,336C 241.516,336.499 247.516,336.332 253.5,335.5C 251.24,322.264 250.906,308.93 252.5,295.5C 250.265,295.795 248.265,295.461 246.5,294.5 Z"/></g>
<g><path style="opacity:1" fill="#1c191a" d="M 290.5,320.5 C 291.167,320.833 291.833,321.167 292.5,321.5C 295.687,323.344 297.687,326.011 298.5,329.5C 305.445,330.451 312.279,330.785 319,330.5C 324.948,329.127 330.781,327.46 336.5,325.5C 340.607,327.127 343.607,325.794 345.5,321.5C 346.946,320.387 348.613,320.22 350.5,321C 352.181,323.344 353.848,325.677 355.5,328C 354.867,331.367 353.7,334.533 352,337.5C 349.026,341.642 345.526,345.308 341.5,348.5C 341.414,347.504 341.748,346.671 342.5,346C 341.906,345.536 341.239,345.369 340.5,345.5C 343.453,341.375 346.619,337.375 350,333.5C 350.991,331.553 351.325,329.553 351,327.5C 345.882,334.787 339.382,340.454 331.5,344.5C 330.779,346.686 330.113,348.853 329.5,351C 329.728,351.399 330.062,351.565 330.5,351.5C 329.421,353.543 327.754,354.876 325.5,355.5C 325.75,354.078 326.583,353.078 328,352.5C 328.667,348.5 328.667,344.5 328,340.5C 327.583,339.244 326.75,338.577 325.5,338.5C 324.292,335.956 322.292,334.622 319.5,334.5C 315.702,333.517 311.702,333.183 307.5,333.5C 303.885,333.845 300.552,333.178 297.5,331.5C 296.259,329.137 294.592,327.137 292.5,325.5C 292.167,325.5 291.833,325.5 291.5,325.5C 290.699,323.958 290.366,322.292 290.5,320.5 Z"/></g>
<g><path style="opacity:0.235" fill="#415f68" d="M 345.5,321.5 C 343.607,325.794 340.607,327.127 336.5,325.5C 339.57,324.468 342.57,323.135 345.5,321.5 Z"/></g>
<g><path style="opacity:1" fill="#530e13" d="M 224.5,324.5 C 225.167,325.167 225.833,325.833 226.5,326.5C 227.752,328.001 228.752,329.668 229.5,331.5C 224.866,333.733 220.199,333.733 215.5,331.5C 218.898,331.82 222.232,331.487 225.5,330.5C 224.167,328.5 222.833,326.5 221.5,324.5C 222.233,323.913 223.233,323.913 224.5,324.5 Z"/></g>
<g><path style="opacity:1" fill="#581a1c" d="M 200.5,327.5 C 203.802,328.294 207.135,328.96 210.5,329.5C 212.167,330.167 213.833,330.833 215.5,331.5C 213.473,331.338 211.473,331.505 209.5,332C 210.672,332.419 211.672,333.085 212.5,334C 209.408,334.736 206.408,334.569 203.5,333.5C 202.877,331.289 201.877,329.289 200.5,327.5 Z"/></g>
<g><path style="opacity:1" fill="#ba362f" d="M 224.5,324.5 C 223.233,323.913 222.233,323.913 221.5,324.5C 222.833,326.5 224.167,328.5 225.5,330.5C 222.232,331.487 218.898,331.82 215.5,331.5C 213.833,330.833 212.167,330.167 210.5,329.5C 214.182,329.665 217.848,329.499 221.5,329C 219.983,327.315 218.316,325.815 216.5,324.5C 217.09,323.201 218.09,322.368 219.5,322C 222.262,320.923 223.928,321.756 224.5,324.5 Z"/></g>
<g><path style="opacity:1" fill="#d8d8cd" d="M 335.5,328.5 C 337.379,328.393 337.712,328.893 336.5,330C 333.5,331.833 330.5,333.667 327.5,335.5C 326.354,334.855 325.354,334.022 324.5,333C 328.474,332.006 332.14,330.506 335.5,328.5 Z"/></g>
<g><path style="opacity:1" fill="#e0decf" d="M 346.5,323.5 C 348.225,323.843 348.725,324.843 348,326.5C 344.43,333.036 339.263,337.869 332.5,341C 329.679,341.506 328.512,340.34 329,337.5C 336.197,334.462 342.031,329.796 346.5,323.5 Z"/></g>
<g><path style="opacity:1" fill="#aa3c30" d="M 297.5,331.5 C 301.281,336.28 305.948,339.947 311.5,342.5C 308.763,341.969 306.096,341.136 303.5,340C 301.53,337.258 299.03,335.092 296,333.5C 292.459,336.437 288.292,337.937 283.5,338C 282.5,339 281.5,340 280.5,341C 274.804,341.17 269.138,341.67 263.5,342.5C 264.456,344.075 265.123,345.742 265.5,347.5C 263.127,345.421 261.794,342.754 261.5,339.5C 266.82,340.266 272.154,340.432 277.5,340C 278.833,339.333 279.833,338.333 280.5,337C 284.616,336.675 288.616,335.841 292.5,334.5C 293.246,333.264 293.579,331.93 293.5,330.5C 294.959,330.433 296.292,330.766 297.5,331.5 Z"/></g>
<g><path style="opacity:0.871" fill="#290d0b" d="M 181.5,282.5 C 180.089,284.539 178.089,285.539 175.5,285.5C 174.063,292.198 174.23,298.864 176,305.5C 176.991,308.64 178.824,310.974 181.5,312.5C 181.5,312.833 181.5,313.167 181.5,313.5C 184.413,319.415 189.08,323.081 195.5,324.5C 196.768,326.047 198.435,327.047 200.5,327.5C 201.877,329.289 202.877,331.289 203.5,333.5C 202.167,333.5 200.833,333.5 199.5,333.5C 201.347,337.564 202.347,341.898 202.5,346.5C 202.5,348.5 201.5,349.5 199.5,349.5C 196.098,349.658 192.764,349.324 189.5,348.5C 186.623,347.096 184.956,344.763 184.5,341.5C 183.215,335.172 183.215,328.839 184.5,322.5C 184.246,320.583 183.246,319.249 181.5,318.5C 180.932,314.933 178.932,312.599 175.5,311.5C 171.587,302.108 171.587,292.775 175.5,283.5C 177.5,283.167 179.5,282.833 181.5,282.5 Z"/></g>
<g><path style="opacity:1" fill="#a53c32" d="M 189.5,343.5 C 190.922,343.75 191.922,344.583 192.5,346C 194.473,346.495 196.473,346.662 198.5,346.5C 197.352,341.524 196.186,336.524 195,331.5C 192.281,330.556 189.448,330.223 186.5,330.5C 186.5,332.167 186.5,333.833 186.5,335.5C 185.203,333.307 185.203,330.973 186.5,328.5C 187.167,328.167 187.833,327.833 188.5,327.5C 190.868,329.223 193.534,329.89 196.5,329.5C 196.712,334.938 198.379,339.938 201.5,344.5C 200.271,346.918 198.271,347.918 195.5,347.5C 192.114,348.099 190.114,346.766 189.5,343.5 Z"/></g>
<g><path style="opacity:1" fill="#8e7f61" d="M 186.5,323.5 C 189.303,324.067 191.636,325.4 193.5,327.5C 193.167,327.833 192.833,328.167 192.5,328.5C 190.821,326.896 188.821,326.229 186.5,326.5C 186.5,325.5 186.5,324.5 186.5,323.5 Z"/></g>
<g><path style="opacity:1" fill="#4d0504" d="M 297.5,331.5 C 300.552,333.178 303.885,333.845 307.5,333.5C 306.737,334.268 305.737,334.768 304.5,335C 310.153,339.064 316.487,340.564 323.5,339.5C 323.586,340.496 323.252,341.329 322.5,342C 318.848,342.499 315.182,342.665 311.5,342.5C 305.948,339.947 301.281,336.28 297.5,331.5 Z"/></g>
<g><path style="opacity:1" fill="#ae3f37" d="M 307.5,333.5 C 311.702,333.183 315.702,333.517 319.5,334.5C 322.292,334.622 324.292,335.956 325.5,338.5C 325.5,338.833 325.5,339.167 325.5,339.5C 324.833,339.5 324.167,339.5 323.5,339.5C 316.487,340.564 310.153,339.064 304.5,335C 305.737,334.768 306.737,334.268 307.5,333.5 Z"/></g>
<g><path style="opacity:1" fill="#d33125" d="M 319.5,334.5 C 320.091,335.151 320.757,335.818 321.5,336.5C 317.516,339.334 313.849,339.001 310.5,335.5C 313.428,334.516 316.428,334.183 319.5,334.5 Z"/></g>
<g><path style="opacity:1" fill="#2d0f05" d="M 297.5,282.5 C 298.293,287.327 298.293,292.327 297.5,297.5C 297.649,300.607 297.149,303.607 296,306.5C 293.028,309.478 290.862,312.978 289.5,317C 289.989,318.138 290.322,319.305 290.5,320.5C 290.366,322.292 290.699,323.958 291.5,325.5C 289.076,325.192 286.743,325.526 284.5,326.5C 284.624,327.107 284.957,327.44 285.5,327.5C 285.631,328.376 285.298,329.043 284.5,329.5C 282.47,330.172 280.47,330.838 278.5,331.5C 275.813,331.336 273.146,331.503 270.5,332C 271.337,333.011 271.67,334.178 271.5,335.5C 267.818,335.335 264.152,335.501 260.5,336C 265.659,337.42 270.992,338.254 276.5,338.5C 276.5,337.167 276.5,335.833 276.5,334.5C 279.385,334.806 282.052,334.473 284.5,333.5C 288.172,333.817 289.838,332.151 289.5,328.5C 292.195,328.437 293.195,327.437 292.5,325.5C 294.592,327.137 296.259,329.137 297.5,331.5C 296.292,330.766 294.959,330.433 293.5,330.5C 293.579,331.93 293.246,333.264 292.5,334.5C 288.616,335.841 284.616,336.675 280.5,337C 279.833,338.333 278.833,339.333 277.5,340C 272.154,340.432 266.82,340.266 261.5,339.5C 261.794,342.754 263.127,345.421 265.5,347.5C 266.733,349.796 268.733,351.13 271.5,351.5C 274.091,353.961 277.091,355.628 280.5,356.5C 278.142,356.253 276.142,356.919 274.5,358.5C 273.525,356.807 272.192,355.307 270.5,354C 264.173,351.166 260.173,346.333 258.5,339.5C 250.858,340.263 243.191,340.597 235.5,340.5C 234.833,339.5 234.167,338.5 233.5,337.5C 241.167,337.5 248.833,337.5 256.5,337.5C 256.784,335.585 256.451,333.919 255.5,332.5C 255.285,330.821 255.952,329.821 257.5,329.5C 258.95,331.383 260.95,332.383 263.5,332.5C 265.463,332.635 266.463,332.302 266.5,331.5C 266.263,330.209 266.596,329.209 267.5,328.5C 271.846,328.666 276.179,328.499 280.5,328C 281.939,327.009 282.939,325.676 283.5,324C 285.473,323.505 287.473,323.338 289.5,323.5C 289.002,320.674 287.669,318.34 285.5,316.5C 284.332,312.173 282.999,307.84 281.5,303.5C 282.79,304.058 283.623,305.058 284,306.5C 284.172,299.987 284.672,293.653 285.5,287.5C 285.179,293.026 285.512,298.36 286.5,303.5C 286.889,306.946 287.722,310.279 289,313.5C 291.639,310.55 293.473,307.217 294.5,303.5C 296.135,296.724 297.135,289.724 297.5,282.5 Z"/></g>
<g><path style="opacity:1" fill="#d8c865" d="M 278.5,331.5 C 279.918,333.308 281.918,333.975 284.5,333.5C 282.052,334.473 279.385,334.806 276.5,334.5C 276.5,335.833 276.5,337.167 276.5,338.5C 270.992,338.254 265.659,337.42 260.5,336C 264.152,335.501 267.818,335.335 271.5,335.5C 271.67,334.178 271.337,333.011 270.5,332C 273.146,331.503 275.813,331.336 278.5,331.5 Z"/></g>
<g><path style="opacity:1" fill="#dfa839" d="M 289.5,328.5 C 289.838,332.151 288.172,333.817 284.5,333.5C 281.918,333.975 279.918,333.308 278.5,331.5C 280.47,330.838 282.47,330.172 284.5,329.5C 285.298,329.043 285.631,328.376 285.5,327.5C 285.917,326.876 286.584,326.543 287.5,326.5C 288.713,326.747 289.38,327.414 289.5,328.5 Z"/></g>
<g><path style="opacity:1" fill="#906942" d="M 291.5,325.5 C 291.833,325.5 292.167,325.5 292.5,325.5C 293.195,327.437 292.195,328.437 289.5,328.5C 289.38,327.414 288.713,326.747 287.5,326.5C 286.584,326.543 285.917,326.876 285.5,327.5C 284.957,327.44 284.624,327.107 284.5,326.5C 286.743,325.526 289.076,325.192 291.5,325.5 Z"/></g>
<g><path style="opacity:1" fill="#d3351f" d="M 189.5,343.5 C 187.018,341.497 186.018,338.831 186.5,335.5C 186.5,333.833 186.5,332.167 186.5,330.5C 189.448,330.223 192.281,330.556 195,331.5C 196.186,336.524 197.352,341.524 198.5,346.5C 196.473,346.662 194.473,346.495 192.5,346C 191.922,344.583 190.922,343.75 189.5,343.5 Z"/></g>
<g><path style="opacity:1" fill="#f3aa10" d="M 213.5,337.5 C 218.511,337.334 223.511,337.501 228.5,338C 229.252,338.671 229.586,339.504 229.5,340.5C 229.708,342.92 229.374,345.253 228.5,347.5C 223.485,349.836 218.485,352.17 213.5,354.5C 212.571,355.689 212.238,357.022 212.5,358.5C 210.585,358.216 208.919,358.549 207.5,359.5C 203.5,359.5 199.5,359.5 195.5,359.5C 195.5,359.167 195.5,358.833 195.5,358.5C 195.5,357.5 195.5,356.5 195.5,355.5C 202.378,353.698 209.378,352.032 216.5,350.5C 216.244,345.949 215.244,341.616 213.5,337.5 Z"/></g>
<g><path style="opacity:1" fill="#dfdcd2" d="M 340.5,345.5 C 337.466,348.016 334.132,350.016 330.5,351.5C 330.062,351.565 329.728,351.399 329.5,351C 330.113,348.853 330.779,346.686 331.5,344.5C 339.382,340.454 345.882,334.787 351,327.5C 351.325,329.553 350.991,331.553 350,333.5C 346.619,337.375 343.453,341.375 340.5,345.5 Z"/></g>
<g><path style="opacity:1" fill="#f8e11d" d="M 213.5,337.5 C 215.244,341.616 216.244,345.949 216.5,350.5C 209.378,352.032 202.378,353.698 195.5,355.5C 195.5,356.5 195.5,357.5 195.5,358.5C 192.833,358.5 190.167,358.5 187.5,358.5C 187.5,357.5 187.5,356.5 187.5,355.5C 192.324,356.029 196.657,354.862 200.5,352C 203.146,351.503 205.813,351.336 208.5,351.5C 208.768,349.901 208.434,348.568 207.5,347.5C 206.105,345.307 205.105,342.974 204.5,340.5C 204.5,339.5 204.5,338.5 204.5,337.5C 207.5,337.5 210.5,337.5 213.5,337.5 Z"/></g>
<g><path style="opacity:1" fill="#241800" d="M 237.5,347.5 C 240.388,346.99 242.721,347.656 244.5,349.5C 241.612,350.01 239.279,349.344 237.5,347.5 Z"/></g>
<g><path style="opacity:1" fill="#d7321b" d="M 311.5,342.5 C 315.182,342.665 318.848,342.499 322.5,342C 323.252,341.329 323.586,340.496 323.5,339.5C 324.167,339.5 324.833,339.5 325.5,339.5C 326.338,339.842 326.672,340.508 326.5,341.5C 326.865,345.953 325.532,349.786 322.5,353C 317.875,355.149 313.208,356.982 308.5,358.5C 308.167,358.5 307.833,358.5 307.5,358.5C 300.833,358.5 294.167,358.5 287.5,358.5C 287.286,356.856 287.62,355.356 288.5,354C 282.627,353.878 276.961,353.045 271.5,351.5C 268.733,351.13 266.733,349.796 265.5,347.5C 265.123,345.742 264.456,344.075 263.5,342.5C 269.138,341.67 274.804,341.17 280.5,341C 281.5,340 282.5,339 283.5,338C 288.292,337.937 292.459,336.437 296,333.5C 299.03,335.092 301.53,337.258 303.5,340C 306.096,341.136 308.763,341.969 311.5,342.5 Z"/></g>
<g><path style="opacity:1" fill="#ddd242" d="M 204.5,340.5 C 205.105,342.974 206.105,345.307 207.5,347.5C 208.434,348.568 208.768,349.901 208.5,351.5C 205.813,351.336 203.146,351.503 200.5,352C 196.657,354.862 192.324,356.029 187.5,355.5C 187.5,356.5 187.5,357.5 187.5,358.5C 190.167,358.5 192.833,358.5 195.5,358.5C 195.5,358.833 195.5,359.167 195.5,359.5C 192.482,359.665 189.482,359.498 186.5,359C 185.316,357.855 185.316,356.688 186.5,355.5C 190.984,353.757 195.317,351.757 199.5,349.5C 201.5,349.5 202.5,348.5 202.5,346.5C 204.308,345.082 204.975,343.082 204.5,340.5 Z"/></g>
<g><path style="opacity:1" fill="#331f03" d="M 207.5,347.5 C 207.38,348.586 206.713,349.253 205.5,349.5C 204.833,349.167 204.167,348.833 203.5,348.5C 204.689,347.571 206.022,347.238 207.5,347.5 Z"/></g>
<g><path style="opacity:1" fill="#d7a238" d="M 229.5,340.5 C 231.625,342.861 232.291,345.528 231.5,348.5C 226.321,350.951 220.988,353.118 215.5,355C 213.963,356.11 213.297,357.61 213.5,359.5C 211.5,359.5 209.5,359.5 207.5,359.5C 208.919,358.549 210.585,358.216 212.5,358.5C 212.238,357.022 212.571,355.689 213.5,354.5C 218.485,352.17 223.485,349.836 228.5,347.5C 229.374,345.253 229.708,342.92 229.5,340.5 Z"/></g>
<g><path style="opacity:1" fill="#f6aa0c" d="M 251.5,341.5 C 253.086,342.148 254.753,342.648 256.5,343C 258.287,347.479 261.287,350.645 265.5,352.5C 265.227,354.451 265.893,355.951 267.5,357C 267.167,357.333 266.833,357.667 266.5,358C 257.351,358.986 248.351,358.486 239.5,356.5C 239.5,357.833 239.5,359.167 239.5,360.5C 237.5,360.5 235.5,360.5 233.5,360.5C 233.33,359.178 233.663,358.011 234.5,357C 237.044,355.908 239.711,355.241 242.5,355C 245.432,351.534 249.098,349.701 253.5,349.5C 253.037,346.779 252.371,344.112 251.5,341.5 Z"/></g>
<g><path style="opacity:1" fill="#b83828" d="M 271.5,351.5 C 276.961,353.045 282.627,353.878 288.5,354C 287.62,355.356 287.286,356.856 287.5,358.5C 294.167,358.5 300.833,358.5 307.5,358.5C 303.03,359.486 298.363,359.819 293.5,359.5C 288.786,359.879 284.453,358.879 280.5,356.5C 277.091,355.628 274.091,353.961 271.5,351.5 Z"/></g>
<g><path style="opacity:1" fill="#3a0806" d="M 325.5,339.5 C 325.5,339.167 325.5,338.833 325.5,338.5C 326.75,338.577 327.583,339.244 328,340.5C 328.667,344.5 328.667,348.5 328,352.5C 326.583,353.078 325.75,354.078 325.5,355.5C 324.167,355.5 322.833,355.5 321.5,355.5C 327.153,352.181 328.82,347.514 326.5,341.5C 326.672,340.508 326.338,339.842 325.5,339.5 Z"/></g>
<g><path style="opacity:1" fill="#e0d245" d="M 235.5,347.5 C 236.167,347.5 236.833,347.5 237.5,347.5C 239.279,349.344 241.612,350.01 244.5,349.5C 240.946,350.249 237.28,351.082 233.5,352C 231.321,352.442 230.655,353.442 231.5,355C 227.225,356.158 222.891,356.992 218.5,357.5C 218.5,358.5 218.5,359.5 218.5,360.5C 220.099,360.232 221.432,360.566 222.5,361.5C 220.5,361.5 218.5,361.5 216.5,361.5C 216.286,359.856 216.62,358.356 217.5,357C 223.345,354.33 229.345,352.164 235.5,350.5C 235.5,349.5 235.5,348.5 235.5,347.5 Z"/></g>
<g><path style="opacity:1" fill="#f6df1f" d="M 233.5,341.5 C 239.5,341.5 245.5,341.5 251.5,341.5C 252.371,344.112 253.037,346.779 253.5,349.5C 249.098,349.701 245.432,351.534 242.5,355C 239.711,355.241 237.044,355.908 234.5,357C 233.663,358.011 233.33,359.178 233.5,360.5C 232.833,360.5 232.5,360.833 232.5,361.5C 229.167,361.5 225.833,361.5 222.5,361.5C 221.432,360.566 220.099,360.232 218.5,360.5C 218.5,359.5 218.5,358.5 218.5,357.5C 222.891,356.992 227.225,356.158 231.5,355C 230.655,353.442 231.321,352.442 233.5,352C 237.28,351.082 240.946,350.249 244.5,349.5C 242.721,347.656 240.388,346.99 237.5,347.5C 236.833,347.5 236.167,347.5 235.5,347.5C 234.833,345.5 234.167,343.5 233.5,341.5 Z"/></g>
<g><path style="opacity:1" fill="#ae4237" d="M 326.5,341.5 C 328.82,347.514 327.153,352.181 321.5,355.5C 320.508,355.328 319.842,355.662 319.5,356.5C 315.915,357.583 312.249,358.249 308.5,358.5C 313.208,356.982 317.875,355.149 322.5,353C 325.532,349.786 326.865,345.953 326.5,341.5 Z"/></g>
<g><path style="opacity:1" fill="#d9a336" d="M 274.5,358.5 C 260.566,360.1 246.566,361.1 232.5,361.5C 232.5,360.833 232.833,360.5 233.5,360.5C 235.5,360.5 237.5,360.5 239.5,360.5C 239.5,359.167 239.5,357.833 239.5,356.5C 248.351,358.486 257.351,358.986 266.5,358C 266.833,357.667 267.167,357.333 267.5,357C 265.893,355.951 265.227,354.451 265.5,352.5C 261.287,350.645 258.287,347.479 256.5,343C 254.753,342.648 253.086,342.148 251.5,341.5C 245.5,341.5 239.5,341.5 233.5,341.5C 233.842,340.662 234.508,340.328 235.5,340.5C 243.191,340.597 250.858,340.263 258.5,339.5C 260.173,346.333 264.173,351.166 270.5,354C 272.192,355.307 273.525,356.807 274.5,358.5 Z"/></g>
<g><path style="opacity:0.96" fill="#0c080d" d="M 340.5,345.5 C 341.239,345.369 341.906,345.536 342.5,346C 341.748,346.671 341.414,347.504 341.5,348.5C 341.196,349.15 340.863,349.817 340.5,350.5C 344.459,351.327 348.459,351.827 352.5,352C 355.08,354.12 355.08,356.287 352.5,358.5C 350.333,359.792 348,360.625 345.5,361C 335.746,361.46 326.079,362.294 316.5,363.5C 306.342,362.341 296.008,362.175 285.5,363C 284.619,363.708 283.953,364.542 283.5,365.5C 282.737,366.268 281.737,366.768 280.5,367C 256.981,367.742 233.314,368.409 209.5,369C 207.881,368.764 206.881,367.931 206.5,366.5C 206.5,366.167 206.5,365.833 206.5,365.5C 206.938,365.565 207.272,365.399 207.5,365C 203.485,362.893 203.818,362.227 208.5,363C 209.337,364.011 209.67,365.178 209.5,366.5C 211.199,366.66 212.866,366.494 214.5,366C 213.098,364.658 213.431,363.824 215.5,363.5C 218.332,364.872 221.332,365.872 224.5,366.5C 225.696,366.154 225.696,365.654 224.5,365C 226.952,364.71 229.285,364.044 231.5,363C 246.238,362.95 260.904,361.95 275.5,360C 274.944,359.617 274.611,359.117 274.5,358.5C 276.142,356.919 278.142,356.253 280.5,356.5C 284.453,358.879 288.786,359.879 293.5,359.5C 301.803,361.021 310.136,360.521 318.5,358C 319.056,357.617 319.389,357.117 319.5,356.5C 319.842,355.662 320.508,355.328 321.5,355.5C 322.833,355.5 324.167,355.5 325.5,355.5C 327.754,354.876 329.421,353.543 330.5,351.5C 334.132,350.016 337.466,348.016 340.5,345.5 Z"/></g>
<g><path style="opacity:1" fill="#490c0b" d="M 319.5,356.5 C 319.389,357.117 319.056,357.617 318.5,358C 310.136,360.521 301.803,361.021 293.5,359.5C 298.363,359.819 303.03,359.486 307.5,358.5C 307.833,358.5 308.167,358.5 308.5,358.5C 312.249,358.249 315.915,357.583 319.5,356.5 Z"/></g>
<g><path style="opacity:0.832" fill="#170d07" d="M 215.5,331.5 C 220.199,333.733 224.866,333.733 229.5,331.5C 231.01,333.322 232.343,335.322 233.5,337.5C 234.167,338.5 234.833,339.5 235.5,340.5C 234.508,340.328 233.842,340.662 233.5,341.5C 234.167,343.5 234.833,345.5 235.5,347.5C 235.5,348.5 235.5,349.5 235.5,350.5C 229.345,352.164 223.345,354.33 217.5,357C 216.62,358.356 216.286,359.856 216.5,361.5C 218.5,361.5 220.5,361.5 222.5,361.5C 225.833,361.5 229.167,361.5 232.5,361.5C 246.566,361.1 260.566,360.1 274.5,358.5C 274.611,359.117 274.944,359.617 275.5,360C 260.904,361.95 246.238,362.95 231.5,363C 229.285,364.044 226.952,364.71 224.5,365C 225.696,365.654 225.696,366.154 224.5,366.5C 221.332,365.872 218.332,364.872 215.5,363.5C 213.431,363.824 213.098,364.658 214.5,366C 212.866,366.494 211.199,366.66 209.5,366.5C 209.67,365.178 209.337,364.011 208.5,363C 203.818,362.227 203.485,362.893 207.5,365C 207.272,365.399 206.938,365.565 206.5,365.5C 194.152,365.586 181.819,365.253 169.5,364.5C 165.287,363.364 164.62,361.197 167.5,358C 171.698,356.493 176.032,355.493 180.5,355C 183.126,352.854 186.126,351.521 189.5,351C 190.598,350.23 190.598,349.397 189.5,348.5C 192.764,349.324 196.098,349.658 199.5,349.5C 195.317,351.757 190.984,353.757 186.5,355.5C 184.29,356.455 183.957,357.955 185.5,360C 193.012,360.822 200.345,360.655 207.5,359.5C 209.5,359.5 211.5,359.5 213.5,359.5C 213.297,357.61 213.963,356.11 215.5,355C 220.988,353.118 226.321,350.951 231.5,348.5C 232.291,345.528 231.625,342.861 229.5,340.5C 229.586,339.504 229.252,338.671 228.5,338C 223.511,337.501 218.511,337.334 213.5,337.5C 210.5,337.5 207.5,337.5 204.5,337.5C 204.5,338.5 204.5,339.5 204.5,340.5C 204.975,343.082 204.308,345.082 202.5,346.5C 202.347,341.898 201.347,337.564 199.5,333.5C 200.833,333.5 202.167,333.5 203.5,333.5C 206.408,334.569 209.408,334.736 212.5,334C 211.672,333.085 210.672,332.419 209.5,332C 211.473,331.505 213.473,331.338 215.5,331.5 Z"/></g>
<g><path style="opacity:1" fill="#bdab5b" d="M 186.5,355.5 C 185.316,356.688 185.316,357.855 186.5,359C 189.482,359.498 192.482,359.665 195.5,359.5C 199.5,359.5 203.5,359.5 207.5,359.5C 200.345,360.655 193.012,360.822 185.5,360C 183.957,357.955 184.29,356.455 186.5,355.5 Z"/></g>
<g><path style="opacity:0.118" fill="#293e46" d="M 316.5,363.5 C 306.828,363.334 297.161,363.5 287.5,364C 286.255,364.791 284.922,365.291 283.5,365.5C 283.953,364.542 284.619,363.708 285.5,363C 296.008,362.175 306.342,362.341 316.5,363.5 Z"/></g>
<g><path style="opacity:0.106" fill="#3c505f" d="M 169.5,364.5 C 181.819,365.253 194.152,365.586 206.5,365.5C 206.5,365.833 206.5,366.167 206.5,366.5C 196.828,366.666 187.161,366.5 177.5,366C 174.635,365.817 171.969,365.317 169.5,364.5 Z"/></g>
</svg>
